<svg xmlns="http://www.w3.org/2000/svg" xmlns:xlink="http://www.w3.org/1999/xlink" viewBox="0 0 1507.88 841.76"><defs><style>.cls-1{fill:url(#Degradado_sin_nombre_21);}.cls-2{fill:none;stroke-miterlimit:10;stroke-width:3px;stroke:url(#Degradado_sin_nombre_12);}</style><linearGradient id="Degradado_sin_nombre_21" x1="720.92" y1="-641.25" x2="720.92" y2="556.56" gradientUnits="userSpaceOnUse"><stop offset="0" stop-color="#1f7afc"/><stop offset="0.16" stop-color="#1f7afc" stop-opacity="0.74"/><stop offset="0.32" stop-color="#1f7afc" stop-opacity="0.52"/><stop offset="0.47" stop-color="#1f7afc" stop-opacity="0.33"/><stop offset="0.61" stop-color="#1f7afc" stop-opacity="0.19"/><stop offset="0.75" stop-color="#1f7afc" stop-opacity="0.08"/><stop offset="0.87" stop-color="#1f7afc" stop-opacity="0.02"/><stop offset="0.96" stop-color="#1f7afc" stop-opacity="0"/></linearGradient><linearGradient id="Degradado_sin_nombre_12" x1="931.89" y1="466.63" x2="931.89" gradientUnits="userSpaceOnUse"><stop offset="0.1" stop-color="#1f7afc" stop-opacity="0"/><stop offset="0.22" stop-color="#1f7afc" stop-opacity="0.04"/><stop offset="0.42" stop-color="#1f7afc" stop-opacity="0.16"/><stop offset="0.7" stop-color="#1f7afc" stop-opacity="0.35"/><stop offset="1" stop-color="#1f7afc" stop-opacity="0.6"/></linearGradient></defs><title>crypto-bg</title><g id="Capa_2" data-name="Capa 2"><g id="Fondo_2" data-name="Fondo 2"><path class="cls-1" d="M1410.31,558.15,1150.73,247.57c-9.56-11.43-28.18-4.68-28.18,10.22V459.73h0L751.5,15.8a39.84,39.84,0,0,0-61.16,0l-371,443.93h0V257.79c0-14.9-18.62-21.66-28.18-10.22L31.53,558.15A135.55,135.55,0,0,0,0,645.06V841.75H1441.84V645.05A135.54,135.54,0,0,0,1410.31,558.15Z"/><path class="cls-2" d="M1506.73,465.66l-216.45-259c-8-9.53-23.5-3.9-23.5,8.53V383.59h0L957.39,13.42a33.24,33.24,0,0,0-51,0L597,383.59h0V215.21c0-12.42-15.53-18.06-23.5-8.53L357,465.67"/></g></g></svg>