<svg xmlns="http://www.w3.org/2000/svg" viewBox="0 0 44.97 40.04"><defs><style>.cls-1{fill:#0d1d7c;}</style></defs><title>edu</title><g id="Capa_2" data-name="Capa 2"><g id="GRAFICA"><g id="EIKEWk"><path class="cls-1" d="M0,8A1.77,1.77,0,0,1,1.24,7Q11.47,3.57,21.68.14a2.43,2.43,0,0,1,1.62,0L43.7,7l.34.11A1.32,1.32,0,0,1,45,8.33,1.29,1.29,0,0,1,44,9.58c-1.13.4-2.26.77-3.4,1.15L23.26,16.52a2.36,2.36,0,0,1-1.53,0Q11.47,13.1,1.2,9.68a1.74,1.74,0,0,1-1.2-1Z"/><path class="cls-1" d="M36.5,15.64v.49c0,2.71,0,5.41,0,8.12a2,2,0,0,1-.66,1.55,18.7,18.7,0,0,1-11.23,5.25A18.85,18.85,0,0,1,8.93,25.58a1.65,1.65,0,0,1-.45-1c0-2.91,0-5.82,0-8.73a1.15,1.15,0,0,1,0-.15l.42.13c4,1.33,8,2.65,12,4a4.69,4.69,0,0,0,3,0c3.58-1.21,5.53-1.85,12.09-4Z"/><path class="cls-1" d="M42.14,13.76v.6q0,6.47,0,13a.55.55,0,0,0,.37.58A4,4,0,0,1,45,31.63c0,2.33,0,4.66,0,7A1.32,1.32,0,0,1,43.56,40H38.07a1.31,1.31,0,0,1-1.38-1.38c0-2.35,0-4.71,0-7.07a3.92,3.92,0,0,1,2.44-3.69.54.54,0,0,0,.37-.58c0-4.08,0-8.17,0-12.25a.5.5,0,0,1,.42-.58C40.64,14.27,41.36,14,42.14,13.76Z"/></g></g></g></svg>