<svg xmlns="http://www.w3.org/2000/svg" xmlns:xlink="http://www.w3.org/1999/xlink" viewBox="0 0 1414.17 726.11"><defs><style>.cls-1{fill:none;stroke-miterlimit:10;stroke-width:3px;stroke:url(#Degradado_sin_nombre_64);}.cls-2{fill:url(#Degradado_sin_nombre_4);}</style><radialGradient id="Degradado_sin_nombre_64" cx="934.56" cy="196.28" r="365.94" gradientUnits="userSpaceOnUse"><stop offset="0" stop-color="#1f7afc" stop-opacity="0"/><stop offset="0.07" stop-color="#1f7afc" stop-opacity="0.04"/><stop offset="0.21" stop-color="#1f7afc" stop-opacity="0.16"/><stop offset="0.38" stop-color="#1f7afc" stop-opacity="0.35"/><stop offset="0.5" stop-color="#1f7afc" stop-opacity="0.5"/><stop offset="1" stop-color="#1f7afc" stop-opacity="0"/></radialGradient><linearGradient id="Degradado_sin_nombre_4" x1="622.99" y1="-555.43" x2="622.99" y2="479.66" gradientUnits="userSpaceOnUse"><stop offset="0" stop-color="#1f7afc"/><stop offset="0.03" stop-color="#1f7afc" stop-opacity="0.95"/><stop offset="0.28" stop-color="#1f7afc" stop-opacity="0.62"/><stop offset="0.5" stop-color="#1f7afc" stop-opacity="0.35"/><stop offset="0.68" stop-color="#1f7afc" stop-opacity="0.16"/><stop offset="0.82" stop-color="#1f7afc" stop-opacity="0.04"/><stop offset="0.9" stop-color="#1f7afc" stop-opacity="0"/></linearGradient></defs><title>hero-bg</title><g id="Capa_2" data-name="Capa 2"><g id="Fondo_2" data-name="Fondo 2"><path class="cls-1" d="M1413,389.71,1232.86,174.16a11.07,11.07,0,0,0-19.56,7.09V321.4h0L955.79,13.3a27.66,27.66,0,0,0-42.45,0L655.83,321.4h0V181.25a11.07,11.07,0,0,0-19.56-7.09L456.1,389.71"/><path class="cls-2" d="M1218.72,481,994.41,212.64c-8.26-9.88-24.36-4-24.36,8.84V396h0L649.41,12.35a34.44,34.44,0,0,0-52.85,0L275.94,396h0V221.47c0-12.87-16.1-18.71-24.36-8.83L27.25,481A117.16,117.16,0,0,0,0,556.13v170H1246v-170A117.1,117.1,0,0,0,1218.72,481Z"/></g></g></svg>