<svg xmlns="http://www.w3.org/2000/svg" viewBox="0 0 51.18 38.37"><defs><style>.cls-1{fill:#0d1d7c;}</style></defs><title>joystick</title><g id="Capa_2" data-name="Capa 2"><g id="GRAFICA"><g id="M4c5AU"><path class="cls-1" d="M0,30v-2.8c0-.16.07-.32.1-.48.15-1.08.25-2.18.45-3.26A62.21,62.21,0,0,1,4.7,10.61,42.43,42.43,0,0,0,7.31,4.2,2.4,2.4,0,0,1,8.88,2.57c2-.76,4-1.56,6.07-2.27A5.36,5.36,0,0,1,16.9.07a3.47,3.47,0,0,1,2.59,1.61,1.12,1.12,0,0,0,1,.46c3.26,0,6.53,0,9.79,0a2.08,2.08,0,0,0,1.76-.76,3.72,3.72,0,0,1,4.52-1c1.88.71,3.75,1.45,5.64,2.13a2.91,2.91,0,0,1,1.86,1.87c.41,1.2.77,2.41,1.29,3.56a72.69,72.69,0,0,1,4.85,13.65,25.92,25.92,0,0,1,.76,9.8A9.53,9.53,0,0,1,48.29,37a3.71,3.71,0,0,1-5.62.12c-2.27-2-4.55-4.07-6.8-6.11A4,4,0,0,0,33,29.9H18.28a3.81,3.81,0,0,0-2.69,1c-.56.52-1.14,1-1.71,1.53-1.82,1.64-3.64,3.29-5.47,4.9a3.57,3.57,0,0,1-4.79.18A8.61,8.61,0,0,1,.41,32.38C.23,31.59.14,30.78,0,30ZM14.93,14.91h-.75a16.76,16.76,0,0,0-1.74.07,2.08,2.08,0,0,0-1.67,2.69,2.11,2.11,0,0,0,2.06,1.51c.69,0,1.38,0,2.09,0a17.44,17.44,0,0,0,0,1.93,3.76,3.76,0,0,0,.46,1.49,2,2,0,0,0,2.31.74,2.1,2.1,0,0,0,1.47-1.94c0-.73,0-1.46,0-2.21H21.3a2.06,2.06,0,0,0,1.63-.74,2,2,0,0,0,.33-2.24,2.08,2.08,0,0,0-2-1.28c-.66,0-1.32,0-1.94,0-.05-.07-.07-.08-.07-.1,0-.68,0-1.36,0-2a2.13,2.13,0,1,0-4.26.09C14.9,13.53,14.93,14.19,14.93,14.91Zm17.05,0a2.13,2.13,0,1,0-2.14,2.12A2.17,2.17,0,0,0,32,14.93Zm8.51,0a2.12,2.12,0,1,0-2.12,2.12A2.14,2.14,0,0,0,40.49,14.93ZM32,10.67A2.12,2.12,0,1,0,34.1,8.53,2.13,2.13,0,0,0,32,10.67ZM34.12,21.3A2.12,2.12,0,1,0,32,19.2,2.1,2.1,0,0,0,34.12,21.3Z"/></g></g></g></svg>