<svg xmlns="http://www.w3.org/2000/svg" viewBox="0 0 39.45 42.47"><defs><style>.cls-1{fill:#0d1d7c;}</style></defs><title>support</title><g id="Capa_2" data-name="Capa 2"><g id="GRAFICA"><path class="cls-1" d="M39.43,21.72a4.16,4.16,0,0,0-3.08-3.94,10.1,10.1,0,0,0-1-.2v0h0l.22,0h0l.35,0a16.29,16.29,0,0,0-3.9-12A15.72,15.72,0,0,0,20.7,0c-.37,0-.74,0-1.11,0a15.37,15.37,0,0,0-9.25,3C5.56,6.49,3.27,11.4,3.52,17.59v.1A4.2,4.2,0,0,0,0,22.17v6.52a4.24,4.24,0,0,0,4.39,4.42H9.68a1.43,1.43,0,0,0,1.59-1.61V19.21a1.44,1.44,0,0,0-1.6-1.6H7.76v-.08A13.73,13.73,0,0,1,8.88,11a11.46,11.46,0,0,1,4.3-4.82,12,12,0,0,1,6.53-2.08A12,12,0,0,1,26,6.05a11.49,11.49,0,0,1,4.49,4.84,13.85,13.85,0,0,1,1.19,6.64v.08H29.87c-1.18,0-1.7.52-1.7,1.68V31.4c0,1.2.52,1.71,1.72,1.71H32v2.06a1.56,1.56,0,0,1-1.56,1.56H24.76a4.23,4.23,0,0,0-4-2.74H18.34a4.24,4.24,0,0,0,0,8.48h2.47a4.23,4.23,0,0,0,4-2.74H30.4A4.57,4.57,0,0,0,35,35.17V33.12h.31l.28,0A4.21,4.21,0,0,0,39.43,29Q39.48,25.35,39.43,21.72Z"/></g></g></svg>