<svg xmlns="http://www.w3.org/2000/svg" viewBox="0 0 46.47 37.79"><defs><style>.cls-1{fill:#0d1d7c;}</style></defs><title>tools</title><g id="Capa_2" data-name="Capa 2"><g id="GRAFICA"><g id="wEI54U"><path class="cls-1" d="M36.4,20.58c-.54-.08-1.58-.19-2.6-.42a1.63,1.63,0,0,0-1.76.55c-4.72,5.08-9.47,10.14-14.2,15.21a5.38,5.38,0,0,1-3.4,1.82,5.13,5.13,0,0,1-5.19-2.83A5,5,0,0,1,10.2,29c2-1.87,3.94-3.69,5.91-5.52Q21,19,25.9,14.43a1.36,1.36,0,0,0,.42-1.5,11.55,11.55,0,0,1-.1-6.28A8.76,8.76,0,0,1,32.31.56a9.68,9.68,0,0,1,6.75.16,1.54,1.54,0,0,1,.57,2.68c-1.43,1.44-2.87,2.87-4.31,4.31a1.08,1.08,0,0,0,0,1.79L37,11.2a1.05,1.05,0,0,0,1.75,0L43,6.91a1.55,1.55,0,0,1,2.78.56,10,10,0,0,1-1.17,9.28C42.85,19.52,40.1,20.54,36.4,20.58Z"/><path class="cls-1" d="M22.23,13.86l-6,5.57a3.17,3.17,0,0,1-.67-1.71.71.71,0,0,0-.16-.44c-1.17-1-2.35-2-3.56-3a3.35,3.35,0,0,0-.94-.43.43.43,0,0,0-.37.06.41.41,0,0,0,0,.36,1.93,1.93,0,0,1-.49,2.39L7.64,19a1.9,1.9,0,0,1-2.89,0L.69,15a1.89,1.89,0,0,1,0-2.91L3.15,9.68a1.91,1.91,0,0,1,1.42-.61.76.76,0,0,0,.82-.68,2.52,2.52,0,0,1,.41-1A19.08,19.08,0,0,1,16.31.33a8.28,8.28,0,0,1,7,1.08,9.35,9.35,0,0,1,1.75,1.75,1.34,1.34,0,0,1,0,1.69,1.43,1.43,0,0,1-1.67.47,5.09,5.09,0,0,0-4.21.41,2.87,2.87,0,0,0-1.58,3.2,3.13,3.13,0,0,0,.48,1c.65.94,1.32,1.85,2,2.76a1,1,0,0,0,.57.35A3.25,3.25,0,0,1,22.23,13.86Z"/><path class="cls-1" d="M27,30.4,33,24l2.85,2.58q1.88,1.68,3.77,3.33a2.69,2.69,0,0,1,.19,4.14c-1,1-1.94,2-2.93,2.92a2.68,2.68,0,0,1-3.93-.1c-1.93-2.09-3.84-4.19-5.77-6.29A1.81,1.81,0,0,1,27,30.4Z"/></g></g></g></svg>