<?xml version="1.0" encoding="UTF-8"?>
<svg id="Capa_2" data-name="Capa 2" xmlns="http://www.w3.org/2000/svg" xmlns:xlink="http://www.w3.org/1999/xlink" viewBox="0 0 168.73 168.73">
  <defs>
    <style>
      .cls-1 {
        fill: none;
        stroke: url(#Degradado_sin_nombre_79);
        stroke-miterlimit: 10;
        stroke-width: 3.54px;
      }

      .cls-2 {
        fill: #fff;
      }

      .cls-3 {
        fill: #ff6f6c;
      }
    </style>
    <linearGradient id="Degradado_sin_nombre_79" data-name="Degradado sin nombre 79" x1="84.36" y1="168.73" x2="84.36" y2="0" gradientUnits="userSpaceOnUse">
      <stop offset="0" stop-color="#1f7af7" stop-opacity="0"/>
      <stop offset=".12" stop-color="#1f7af7" stop-opacity=".05"/>
      <stop offset=".32" stop-color="#1f7af7" stop-opacity=".17"/>
      <stop offset=".6" stop-color="#1f7af7" stop-opacity=".36"/>
      <stop offset=".92" stop-color="#1f7af7" stop-opacity=".63"/>
      <stop offset="1" stop-color="#1f7af7" stop-opacity=".7"/>
    </linearGradient>
  </defs>
  <g id="GRAFICA">
    <circle class="cls-1" cx="84.36" cy="84.36" r="82.59"/>
    <circle class="cls-3" cx="84.36" cy="84.36" r="64.89"/>
    <path class="cls-2" d="m84.36,49.36c-19.3,0-35,15.7-35,35.01s15.7,35.01,35,35.01,35.01-15.7,35.01-35.01-15.7-35.01-35.01-35.01Zm0,4.69c8.32,0,15.87,3.37,21.35,8.82l-3.62,3.12c-4.59-4.43-10.84-7.16-17.73-7.16s-13.33,2.81-17.94,7.36l-3.65-3.07c5.5-5.59,13.15-9.06,21.59-9.06Zm6.8,40.78l-6.8-3.58-6.8,3.58,1.3-7.57-5.5-5.36,7.6-1.1,3.4-6.89,3.4,6.89,7.6,1.1-5.5,5.36,1.3,7.57Zm-37.11-10.47c0-6.58,2.12-12.68,5.7-17.66l3.65,3.07c-2.88,4.14-4.58,9.16-4.58,14.58s1.76,10.64,4.75,14.82l-3.62,3.12c-3.7-5.03-5.9-11.23-5.9-17.94Zm30.31,30.31c-8.32,0-15.86-3.37-21.35-8.82l3.62-3.12c4.59,4.43,10.84,7.16,17.73,7.16s13.32-2.81,17.94-7.36l3.65,3.07c-5.5,5.59-13.15,9.06-21.59,9.06Zm24.61-12.65l-3.65-3.07c2.88-4.14,4.58-9.16,4.58-14.58s-1.76-10.64-4.75-14.82l3.62-3.12c3.7,5.03,5.9,11.23,5.9,17.94s-2.12,12.68-5.7,17.66Z"/>
  </g>
</svg>