<?xml version="1.0" encoding="UTF-8"?>
<svg id="Capa_2" data-name="Capa 2" xmlns="http://www.w3.org/2000/svg" xmlns:xlink="http://www.w3.org/1999/xlink" viewBox="0 0 168.73 168.73">
  <defs>
    <style>
      .cls-1 {
        fill: none;
        stroke: url(#Degradado_sin_nombre_79);
        stroke-miterlimit: 10;
        stroke-width: 3.54px;
      }

      .cls-2 {
        fill: #fff;
      }

      .cls-3 {
        fill: #1f7af7;
      }
    </style>
    <linearGradient id="Degradado_sin_nombre_79" data-name="Degradado sin nombre 79" x1="84.36" y1="168.73" x2="84.36" y2="0" gradientUnits="userSpaceOnUse">
      <stop offset="0" stop-color="#1f7af7" stop-opacity="0"/>
      <stop offset=".12" stop-color="#1f7af7" stop-opacity=".05"/>
      <stop offset=".32" stop-color="#1f7af7" stop-opacity=".17"/>
      <stop offset=".6" stop-color="#1f7af7" stop-opacity=".36"/>
      <stop offset=".92" stop-color="#1f7af7" stop-opacity=".63"/>
      <stop offset="1" stop-color="#1f7af7" stop-opacity=".7"/>
    </linearGradient>
  </defs>
  <g id="GRAFICA">
    <g>
      <circle class="cls-1" cx="84.36" cy="84.36" r="82.59"/>
      <circle class="cls-3" cx="84.36" cy="84.36" r="64.89"/>
      <g id="bJVbYe">
        <g>
          <path class="cls-2" d="m79.49,112.77c-1.17-.33-2.04-1.08-2.88-1.92-3.11-3.13-6.24-6.24-9.36-9.36-.98-.98-1.67-2.11-1.85-3.51-.24-1.83.27-3.45,1.55-4.75,3.52-3.56,7.08-7.09,10.65-10.6.84-.82,1.91-1.23,3.12-.89,1.28.35,2.11,1.54,2.2,3.15.05,1.05.04,2.11.03,3.16,0,.35.11.47.46.52,5.28.82,10.33.07,15.13-2.27,3.43-1.67,6.33-4.02,8.7-7.01.23-.3.46-.6.72-.88.58-.61,1.37-.77,2.06-.44.7.33,1.16,1.06,1.01,1.86-.35,1.81-.64,3.65-1.19,5.4-1.53,4.91-4.2,9.15-7.94,12.69-3.64,3.45-7.87,5.91-12.74,7.18-1.82.47-3.7.68-5.56,1.01-.19.03-.39.05-.65.09,0,.87.05,1.72-.02,2.56-.06.76-.18,1.54-.41,2.26-.3.93-1.09,1.41-1.97,1.75h-1.07Z"/>
          <path class="cls-2" d="m82.01,75.56c-5.63,0-10.49,1.42-14.88,4.38-2.28,1.53-4.25,3.39-5.92,5.58-.11.14-.22.28-.33.42-.57.67-1.36.9-2.08.59-.79-.34-1.24-1.08-1.11-1.97.13-.92.26-1.85.48-2.76,2.12-8.83,7.14-15.49,15.06-19.91,3.68-2.06,7.68-3.21,11.9-3.53.51-.04.67-.19.66-.71,0-1.11-.07-2.25.14-3.32.52-2.62,2.89-3.43,5.01-1.8.31.24.6.52.89.8,3.22,3.22,6.44,6.44,9.66,9.65,1.37,1.37,2.06,2.98,1.86,4.94-.14,1.38-.77,2.53-1.74,3.5-3.31,3.32-6.62,6.65-9.96,9.95-.46.45-1,.88-1.58,1.14-2.08.97-4.11-.39-4.25-2.83-.06-1.05-.05-2.11-.03-3.16,0-.41-.08-.6-.54-.64-1.19-.09-2.37-.24-3.23-.33Z"/>
        </g>
      </g>
    </g>
  </g>
</svg>