<?xml version="1.0" encoding="UTF-8"?>
<svg id="Capa_2" data-name="Capa 2" xmlns="http://www.w3.org/2000/svg" viewBox="0 0 113.33 113.33">
  <defs>
    <style>
      .cls-1 {
        fill: #fff;
        font-family: Poppins-ExtraBold, Poppins;
        font-size: 14px;
        font-weight: 700;
      }

      .cls-2 {
        fill: #ff6f6c;
        fill-rule: evenodd;
      }
    </style>
  </defs>
  <g id="GRAFICA">
    <g>
      <path class="cls-2" d="m59.63,1.14l7.91,7.15c1.05.95,2.5,1.34,3.89,1.04l10.43-2.24c2.22-.48,4.44.8,5.14,2.96l3.27,10.15c.44,1.35,1.5,2.41,2.85,2.85l10.15,3.27c2.16.7,3.44,2.92,2.96,5.14l-2.24,10.43c-.3,1.39.09,2.84,1.04,3.89l7.15,7.91c1.52,1.68,1.52,4.25,0,5.93l-7.15,7.91c-.95,1.05-1.34,2.5-1.04,3.89l2.24,10.43c.48,2.22-.8,4.44-2.96,5.14l-10.15,3.27c-1.35.44-2.41,1.5-2.85,2.85l-3.27,10.15c-.7,2.16-2.92,3.44-5.14,2.96l-10.43-2.24c-1.39-.3-2.84.09-3.89,1.04l-7.91,7.15c-1.68,1.52-4.25,1.52-5.93,0l-7.91-7.15c-1.05-.95-2.5-1.34-3.89-1.04l-10.43,2.24c-2.22.48-4.44-.8-5.14-2.96l-3.27-10.15c-.44-1.35-1.5-2.41-2.85-2.85l-10.15-3.27c-2.16-.7-3.44-2.92-2.96-5.14l2.24-10.43c.3-1.39-.09-2.84-1.04-3.89l-7.15-7.91c-1.52-1.68-1.52-4.25,0-5.93l7.15-7.91c.95-1.05,1.34-2.5,1.04-3.89l-2.24-10.43c-.48-2.22.8-4.44,2.96-5.14l10.15-3.27c1.35-.44,2.41-1.5,2.85-2.85l3.27-10.15c.7-2.16,2.92-3.44,5.14-2.96l10.43,2.24c1.39.3,2.84-.09,3.89-1.04l7.91-7.15c1.68-1.52,4.25-1.52,5.93,0Z"/>
      <text class="cls-1" transform="translate(49.73 50.8)"><tspan x="0" y="0">IN</tspan><tspan x="-32.48" y="16.8">PROGRESS!</tspan></text>
    </g>
  </g>
</svg>