<?xml version="1.0" encoding="UTF-8"?>
<svg id="Capa_2" data-name="Capa 2" xmlns="http://www.w3.org/2000/svg" xmlns:xlink="http://www.w3.org/1999/xlink" viewBox="0 0 168.73 168.73">
  <defs>
    <style>
      .cls-1 {
        fill: none;
        stroke: url(#Degradado_sin_nombre_79);
        stroke-miterlimit: 10;
        stroke-width: 3.54px;
      }

      .cls-2 {
        fill: #fff;
      }

      .cls-3 {
        fill: #1ab06c;
      }
    </style>
    <linearGradient id="Degradado_sin_nombre_79" data-name="Degradado sin nombre 79" x1="84.36" y1="168.73" x2="84.36" y2="0" gradientUnits="userSpaceOnUse">
      <stop offset="0" stop-color="#1f7af7" stop-opacity="0"/>
      <stop offset=".12" stop-color="#1f7af7" stop-opacity=".05"/>
      <stop offset=".32" stop-color="#1f7af7" stop-opacity=".17"/>
      <stop offset=".6" stop-color="#1f7af7" stop-opacity=".36"/>
      <stop offset=".92" stop-color="#1f7af7" stop-opacity=".63"/>
      <stop offset="1" stop-color="#1f7af7" stop-opacity=".7"/>
    </linearGradient>
  </defs>
  <g id="GRAFICA">
    <g>
      <circle class="cls-3" cx="84.36" cy="84.36" r="64.89"/>
      <circle class="cls-1" cx="84.36" cy="84.36" r="82.59"/>
      <g id="UHxNjF">
        <path class="cls-2" d="m108.75,58.02h.82c.9.41,1.17,1.11,1.14,2.07-.1,3.58-.15,7.17-.22,10.75-.03,1.78-.07,3.57-.1,5.35-.01.68-.29,1.2-.92,1.48-.6.27-1.17.16-1.68-.26-.2-.17-.4-.33-.6-.49-.87-.72-1.74-1.43-2.62-2.16-.13.15-.23.27-.33.38-3.97,4.97-7.95,9.93-11.91,14.9-.16.2-.25.52-.25.79-.01,6-.01,12-.01,18,0,1.28-.57,1.86-1.84,1.86-3.91,0-7.82,0-11.73,0-1.3,0-1.87-.57-1.87-1.89,0-5.98,0-11.97-.01-17.95,0-.29-.11-.65-.3-.87-3.38-4.26-6.78-8.5-10.17-12.74-.66-.83-1.32-1.65-2-2.5-1.08.89-2.12,1.76-3.18,2.6-.25.19-.55.37-.86.42-1.02.18-1.77-.54-1.79-1.66-.08-4.29-.15-8.57-.24-12.86,0-.34-.05-.68-.08-1.02v-3.09c.24-.51.62-.89,1.13-1.13.27,0,.55,0,.82,0,.09.04.18.09.27.11,2.16.51,4.33,1.02,6.5,1.53,3.03.71,6.06,1.43,9.1,2.14.71.17,1.15.59,1.27,1.31.1.64-.18,1.12-.67,1.52-1.02.83-2.03,1.67-3.08,2.54,3.68,4.61,7.32,9.18,11,13.8,3.69-4.63,7.33-9.19,11-13.8-1.01-.84-1.98-1.65-2.96-2.44-.56-.45-.93-.96-.77-1.72.17-.78.73-1.1,1.45-1.27,4-.93,8-1.86,12-2.8,1.23-.29,2.45-.61,3.67-.92Z"/>
      </g>
    </g>
  </g>
</svg>