<svg xmlns="http://www.w3.org/2000/svg" viewBox="0 0 268.3 55.96"><defs><style>.cls-1{fill:#fff;}</style></defs><title>aconcagua</title><g id="Capa_2" data-name="Capa 2"><g id="GRAFICA"><path class="cls-1" d="M139.39,45.05a2.28,2.28,0,0,0-.9-.92,2.73,2.73,0,0,0-1.34-.31,2.93,2.93,0,0,0-1.5.38,2.71,2.71,0,0,0-1,1.09,3.84,3.84,0,0,0,0,3.31,2.69,2.69,0,0,0,1,1.1,3.16,3.16,0,0,0,1.56.38A2.73,2.73,0,0,0,139,49.5a2.79,2.79,0,0,0,.92-1.62h-3.28V46.41h5.16v1.67a4.39,4.39,0,0,1-.82,1.85,4.68,4.68,0,0,1-1.62,1.36,4.78,4.78,0,0,1-2.22.51,5.05,5.05,0,0,1-2.49-.62,4.55,4.55,0,0,1-1.75-1.73,5,5,0,0,1-.64-2.52,5.07,5.07,0,0,1,.64-2.52,4.48,4.48,0,0,1,1.75-1.73,4.94,4.94,0,0,1,2.48-.62,5,5,0,0,1,2.8.78,4,4,0,0,1,1.64,2.21Z"/><path class="cls-1" d="M165.49,49.9h-3.8l-.63,1.82h-2l3.43-9.55h2.23l3.43,9.55h-2ZM165,48.37l-1.38-4-1.38,4Z"/><path class="cls-1" d="M196.22,42.18v9.54h-1.91V45.51l-2.55,6.21h-1.45l-2.57-6.21v6.21h-1.91V42.18H188l3,7.09,3-7.09Z"/><path class="cls-1" d="M216.42,43.72v2.39h3.21v1.52h-3.21v2.53H220v1.56h-5.53V42.17H220v1.55Z"/><path class="cls-1" d="M239.67,51.47a3,3,0,0,1-1.26-1,2.62,2.62,0,0,1-.48-1.52h2a1.35,1.35,0,0,0,.42.93,1.46,1.46,0,0,0,1,.34,1.59,1.59,0,0,0,1-.32,1,1,0,0,0,.38-.84,1,1,0,0,0-.26-.7A1.85,1.85,0,0,0,242,48c-.26-.1-.62-.22-1.08-.35a11,11,0,0,1-1.51-.54,2.63,2.63,0,0,1-1-.8,2.34,2.34,0,0,1-.41-1.44,2.6,2.6,0,0,1,.42-1.48,2.65,2.65,0,0,1,1.19-1,4.2,4.2,0,0,1,1.75-.34,3.81,3.81,0,0,1,2.4.72,2.71,2.71,0,0,1,1,2h-2.11a1.11,1.11,0,0,0-.41-.81,1.56,1.56,0,0,0-1-.32,1.32,1.32,0,0,0-.89.28,1.07,1.07,0,0,0-.34.84.84.84,0,0,0,.26.63,1.72,1.72,0,0,0,.62.41c.26.11.61.23,1.06.37a11.17,11.17,0,0,1,1.52.54,2.74,2.74,0,0,1,1,.82,2.33,2.33,0,0,1,.43,1.44,2.72,2.72,0,0,1-1.56,2.46,4,4,0,0,1-1.82.39A4.55,4.55,0,0,1,239.67,51.47Z"/><path class="cls-1" d="M137.71,23.36a3.07,3.07,0,0,1-1.74.48c-1.8,0-3.06-1.49-3.06-3.62v0c0-2,1.21-3.57,3.06-3.57a3.07,3.07,0,0,1,1.57.39,3.88,3.88,0,0,0,4,.1l2-1.15c-1.5-2.71-4.23-4.54-8.36-4.21a8.49,8.49,0,0,0-7.75,8.49v.05a8.67,8.67,0,0,0,16.22,4.06l-2-1.1A3.73,3.73,0,0,0,137.71,23.36Z"/><path class="cls-1" d="M152.73,11.69a8.66,8.66,0,0,0-8.95,8.53v.05a8.94,8.94,0,0,0,17.85-.05v0A8.58,8.58,0,0,0,152.73,11.69Zm3.39,8.58a3.45,3.45,0,0,1-3.39,3.64,3.5,3.5,0,0,1-3.44-3.69v0a3.45,3.45,0,0,1,3.39-3.64,3.5,3.5,0,0,1,3.44,3.69Z"/><path class="cls-1" d="M174.07,19.26l-4.69-5.82a3.75,3.75,0,0,0-2.92-1.4h-3.33V28.4h5.43V20.85l4.77,5.93a4.35,4.35,0,0,0,3.38,1.62h2.78V12h-5.42Z"/><path class="cls-1" d="M195.25,23.23a3.73,3.73,0,0,0-3.89.13,3.07,3.07,0,0,1-1.74.48c-1.8,0-3.06-1.49-3.06-3.62v0c0-2,1.21-3.57,3.06-3.57a3.07,3.07,0,0,1,1.57.39,3.87,3.87,0,0,0,3.94.1l2-1.15c-1.5-2.71-4.23-4.54-8.36-4.21A8.49,8.49,0,0,0,181,20.22v.05a8.67,8.67,0,0,0,16.22,4.06Z"/><path class="cls-1" d="M202.76,14.14l-6,14.26h3.62a3.21,3.21,0,0,0,3-2.07l0-.13h5.73l.06.16a3.21,3.21,0,0,0,3,2H216l-6.9-16.48h-3A3.62,3.62,0,0,0,202.76,14.14Zm2.1,8.18,1.49-4,1.5,4Z"/><path class="cls-1" d="M114.8,14.14l-6,14.26h3.63a3.23,3.23,0,0,0,3-2.07l0-.13h5.73l.06.16a3.22,3.22,0,0,0,3,2H128l-6.89-16.48h-3A3.61,3.61,0,0,0,114.8,14.14Zm2.09,8.18,1.5-4,1.5,4Z"/><path class="cls-1" d="M255.05,14.14l-6,14.26h3.63a3.2,3.2,0,0,0,3-2.07l.05-.13h5.73l.06.16a3.21,3.21,0,0,0,3,2h3.74l-6.89-16.48h-3A3.63,3.63,0,0,0,255.05,14.14Zm2.1,8.18,1.5-4,1.49,4Z"/><path class="cls-1" d="M223.75,22.23h2.8v1.64a3.65,3.65,0,0,1-1.87.37,3.73,3.73,0,0,1-3.9-3.9v-.05a3.65,3.65,0,0,1,3.67-3.86,5.42,5.42,0,0,1,1.46.21A3.86,3.86,0,0,0,230,15.5l1.1-1.33a10.09,10.09,0,0,0-6.85-2.48c-5.16,0-9,3.64-9,8.53v.05c0,5.07,4.09,8.48,9.19,8.48a11.32,11.32,0,0,0,7.22-2.45V18.72h-7.92Z"/><path class="cls-1" d="M249.3,12h-3a2.58,2.58,0,0,0-2.58,2.58v6.49c0,2-1,2.78-2.52,2.78s-2.53-.87-2.53-2.9V14.62A2.57,2.57,0,0,0,236.11,12h-3v9c0,5.42,3.16,7.67,8,7.67s8.14-2.2,8.14-7.79Z"/><path class="cls-1" d="M0,42.86V56L21.26,30.52V17.07a1.06,1.06,0,0,0-1.87-.68L2.1,37.07A9,9,0,0,0,0,42.86"/><path class="cls-1" d="M74.76,30.52,50.05,1A2.65,2.65,0,0,0,46,1L21.26,30.52V45.87L48,13.87l26.75,32Z"/><path class="cls-1" d="M93.92,37.07,76.64,16.39a1.06,1.06,0,0,0-1.88.68V30.52L96,56V42.86a9,9,0,0,0-2.1-5.79"/><polygon class="cls-1" points="68.01 55.96 48.01 32.03 28.01 55.96 68.01 55.96"/></g></g></svg>