<svg xmlns="http://www.w3.org/2000/svg" xmlns:xlink="http://www.w3.org/1999/xlink" viewBox="0 0 97.03 92.84"><defs><style>.cls-1{fill:#f55ef9;}.cls-2{fill:#82ffb5;}.cls-3{stroke:#000;stroke-linecap:round;stroke-linejoin:round;stroke-width:1.15px;}.cls-4{fill:url(#Degradado_sin_nombre_27);}.cls-5{fill:url(#Degradado_sin_nombre_13);}.cls-6{fill:url(#Degradado_sin_nombre_13-2);}.cls-20,.cls-7{fill:#fff;}.cls-7{opacity:0.35;}.cls-8{fill:#3518b3;}.cls-9{fill:url(#Degradado_sin_nombre_116);}.cls-10{fill:url(#Degradado_sin_nombre_112);}.cls-11{fill:url(#Degradado_sin_nombre_112-2);}.cls-12{fill:url(#Degradado_sin_nombre_112-3);}.cls-13{fill:url(#Degradado_sin_nombre_112-4);}.cls-14{fill:url(#Degradado_sin_nombre_112-5);}.cls-15{fill:url(#Degradado_sin_nombre_112-6);}.cls-16{fill:url(#Degradado_sin_nombre_112-7);}.cls-17{fill:url(#Degradado_sin_nombre_112-8);}.cls-18{fill:url(#Degradado_sin_nombre_112-9);}.cls-19{fill:none;}.cls-21{fill:#3518b5;}.cls-22{fill:#84ffb7;}.cls-23{fill:url(#Degradado_sin_nombre_27-2);}.cls-24{fill:url(#Degradado_sin_nombre_27-3);}.cls-25{fill:url(#Degradado_sin_nombre_27-4);}.cls-26{fill:url(#Degradado_sin_nombre_27-5);}.cls-27{fill:url(#Degradado_sin_nombre_27-6);}.cls-28{fill:url(#Degradado_sin_nombre_27-7);}</style><linearGradient id="Degradado_sin_nombre_27" x1="32.84" y1="50.99" x2="82.26" y2="50.99" gradientUnits="userSpaceOnUse"><stop offset="0" stop-color="#3518b3"/><stop offset="1" stop-color="#3517b3"/></linearGradient><linearGradient id="Degradado_sin_nombre_13" x1="35.17" y1="67.64" x2="35.17" y2="26.27" gradientUnits="userSpaceOnUse"><stop offset="0" stop-color="#865cf7"/><stop offset="1" stop-color="#f55ef9"/></linearGradient><linearGradient id="Degradado_sin_nombre_13-2" x1="61.92" y1="67.75" x2="61.92" y2="26.65" xlink:href="#Degradado_sin_nombre_13"/><linearGradient id="Degradado_sin_nombre_116" x1="39.26" y1="23.65" x2="55" y2="4.64" gradientUnits="userSpaceOnUse"><stop offset="0" stop-color="#3518b3"/><stop offset="1" stop-color="#3518b5"/></linearGradient><linearGradient id="Degradado_sin_nombre_112" x1="49.47" y1="-4.94" x2="49.47" y2="28.09" gradientUnits="userSpaceOnUse"><stop offset="0.63" stop-color="#82ffb5"/><stop offset="1" stop-color="#82ffb5"/></linearGradient><linearGradient id="Degradado_sin_nombre_112-2" x1="57" y1="-5.06" x2="57" y2="28.01" xlink:href="#Degradado_sin_nombre_112"/><linearGradient id="Degradado_sin_nombre_112-3" x1="43.06" y1="-5.03" x2="43.06" y2="28.02" xlink:href="#Degradado_sin_nombre_112"/><linearGradient id="Degradado_sin_nombre_112-4" x1="55.02" y1="-4.99" x2="55.02" y2="27.6" xlink:href="#Degradado_sin_nombre_112"/><linearGradient id="Degradado_sin_nombre_112-5" x1="46.65" y1="-5.01" x2="46.65" y2="27.66" xlink:href="#Degradado_sin_nombre_112"/><linearGradient id="Degradado_sin_nombre_112-6" x1="49.09" y1="-3.64" x2="49.09" y2="28.08" xlink:href="#Degradado_sin_nombre_112"/><linearGradient id="Degradado_sin_nombre_112-7" x1="60.55" y1="-4.23" x2="60.55" y2="27.56" xlink:href="#Degradado_sin_nombre_112"/><linearGradient id="Degradado_sin_nombre_112-8" x1="50.26" y1="-5.44" x2="50.26" y2="28.26" xlink:href="#Degradado_sin_nombre_112"/><linearGradient id="Degradado_sin_nombre_112-9" x1="39.28" y1="-5.44" x2="39.28" y2="28.26" xlink:href="#Degradado_sin_nombre_112"/><linearGradient id="Degradado_sin_nombre_27-2" x1="67.33" y1="66.18" x2="75.29" y2="66.18" xlink:href="#Degradado_sin_nombre_27"/><linearGradient id="Degradado_sin_nombre_27-3" x1="24.86" y1="65.77" x2="32.01" y2="65.77" xlink:href="#Degradado_sin_nombre_27"/><linearGradient id="Degradado_sin_nombre_27-4" x1="14.47" y1="67.9" x2="23.31" y2="67.9" xlink:href="#Degradado_sin_nombre_27"/><linearGradient id="Degradado_sin_nombre_27-5" x1="-2638.96" y1="67.34" x2="-2630.12" y2="67.34" gradientTransform="matrix(-1, 0, 0, 1, -2556.78, 0)" xlink:href="#Degradado_sin_nombre_27"/><linearGradient id="Degradado_sin_nombre_27-6" x1="35.17" y1="65.92" x2="43.03" y2="65.92" xlink:href="#Degradado_sin_nombre_27"/><linearGradient id="Degradado_sin_nombre_27-7" x1="55.15" y1="65.96" x2="60.69" y2="65.96" xlink:href="#Degradado_sin_nombre_27"/></defs><title>fulbo</title><g id="Capa_2" data-name="Capa 2"><g id="GRAFICA"><path class="cls-1" d="M72,66.23c25.08-11,31-32.64-10.18-41.73-1.5-.33,1.42-5.79,1.42-5.79,18.35,1.94,58.48,26.49,8.54,48.81Z"/><path class="cls-2" d="M81,27s13.9,7.54,13.82,16.56c0,0-.28-7.79-14.38-14.74Z"/><path d="M71.82,67.52c6-3,11.92-6.23,16.83-10.7a23.36,23.36,0,0,0,5.95-7.73,13.67,13.67,0,0,0,1.13-4.64A12.64,12.64,0,0,0,95,39.77a20.94,20.94,0,0,0-5.42-7.92A40.87,40.87,0,0,0,81.7,26a56.08,56.08,0,0,0-9-4.13,44.21,44.21,0,0,0-9.53-2.33l.9-.53a34.37,34.37,0,0,0-1.55,4.36c-.09.36-.17.72-.22,1.06a2.48,2.48,0,0,0,0,.69.38.38,0,0,0-.16-.15.49.49,0,0,0-.1,0l.14,0,.59.13,1.17.26A93.37,93.37,0,0,1,73.21,28a54.22,54.22,0,0,1,8.88,3.81,24.59,24.59,0,0,1,7.57,6.14A13.37,13.37,0,0,1,92,42.3a11.42,11.42,0,0,1,.37,5A17.08,17.08,0,0,1,88,55.91,34.31,34.31,0,0,1,80.6,62,47.87,47.87,0,0,1,72,66.23c5.76-2.6,11.29-6,15.3-10.88a16.29,16.29,0,0,0,3.91-8.23,10.2,10.2,0,0,0-.44-4.46,12.19,12.19,0,0,0-2.21-3.92,24.31,24.31,0,0,0-7.25-5.63,53,53,0,0,0-8.64-3.64c-3-1-6-1.76-9.12-2.43l-1.16-.25-.58-.12-.15,0a2.29,2.29,0,0,1-.38-.14,1.43,1.43,0,0,1-.55-.58,2.23,2.23,0,0,1-.19-1,4.17,4.17,0,0,1,0-.72A12.41,12.41,0,0,1,60.87,23a34.07,34.07,0,0,1,1.61-4.62l.24-.6.66.07A42.28,42.28,0,0,1,73.3,20.3a56.47,56.47,0,0,1,9.21,4.33,42.28,42.28,0,0,1,8.19,6.11,21.1,21.1,0,0,1,5.66,8.59,13.89,13.89,0,0,1,.64,5.2,15,15,0,0,1-1.36,5,24.45,24.45,0,0,1-6.4,7.92,52.71,52.71,0,0,1-8.36,5.66A84.79,84.79,0,0,1,71.82,67.52Z"/><path class="cls-3" d="M48.54,17s5.25-.86,17.09,2.05C76,21.53,80.77,25.51,80.77,25.51a75,75,0,0,1-11.7,47.61c-8,12.28-18.91,18.8-20.53,19.14C46.93,91.92,36,85.4,28,73.12a75,75,0,0,1-11.7-47.61s4.82-4,15.14-6.51C43.3,16.09,48.54,17,48.54,17Z"/><path class="cls-4" d="M48.54,85.28l-.17,0C47,85,37.85,79.2,31,67.9c-12.51-20.78-9.73-42.6-9.7-42.82a.76.76,0,0,1,.24-.47c.17-.15,4.19-3.68,12.74-5.95a49.48,49.48,0,0,1,12.39-1.95,11.26,11.26,0,0,1,2,.12,103.35,103.35,0,0,1,14.09,3c8.48,2.26,12.46,4.58,12.62,4.68a.79.79,0,0,1,.37.55c0,.22,2.8,22-9.71,42.82-6.81,11.3-16,17-17.33,17.36Z"/><path d="M46.71,17.47a12.32,12.32,0,0,1,1.83.1,104.46,104.46,0,0,1,14,3C71,22.84,75,25.18,75,25.18a71.34,71.34,0,0,1-9.6,42.32c-6.57,10.92-15.52,16.72-16.85,17-1.32-.3-10.27-6.1-16.85-17a71.34,71.34,0,0,1-9.6-42.32S26,21.64,34.51,19.39a48.91,48.91,0,0,1,12.2-1.92m0-1.52h0a49.87,49.87,0,0,0-12.58,2c-8.73,2.31-12.88,6-13.05,6.12a1.47,1.47,0,0,0-.49.93,72.13,72.13,0,0,0,9.8,43.31C37.05,79.34,46.21,85.54,48.2,86a2,2,0,0,0,.34,0,1.86,1.86,0,0,0,.34,0c2-.46,11.15-6.66,17.81-17.71A72.26,72.26,0,0,0,76.5,25a1.56,1.56,0,0,0-.73-1.11c-.17-.1-4.24-2.47-12.81-4.75a105.3,105.3,0,0,0-14.22-3.05,14.23,14.23,0,0,0-2-.12Z"/><path class="cls-5" d="M37.7,65.77c-7-19.88-6.5-40.38-6.25-45.45-6.36,2.18-9.36,4.86-9.36,4.86a71.34,71.34,0,0,0,9.6,42.32c6.58,10.92,15.53,16.72,16.85,17C47.69,84.18,41.93,77.8,37.7,65.77Z"/><path class="cls-6" d="M74.74,23.58a37.79,37.79,0,0,0-9.09-3c.25,5.32.66,25.5-6.27,45.18-4.23,12-10,18.42-10.84,18.75,1.33-.3,10.28-6.1,16.85-17A71.34,71.34,0,0,0,75,25.18S74.9,24.56,74.74,23.58Z"/><path class="cls-7" d="M61.08,69.9c-.54,1-1.12,1.95-1.73,2.93a54.64,54.64,0,0,1-5.51,7.29A54.6,54.6,0,0,0,63.52,69.9Z"/><path class="cls-7" d="M72.67,40.34h1.25c.72-7.41.59-12.69.11-15.65a60,60,0,0,0-7.14-2.8L73,25.34A97.21,97.21,0,0,1,72.67,40.34Z"/><path class="cls-8" d="M48.57,20.51s4.48-.65,14.56,1.5v-.19c-.81-.31-1.69-.61-2.64-.89C52.11,18.47,48.4,19.2,48.4,19.2s-3.7-.73-12.07,1.73c-.95.28-1.83.58-2.65.89a2.35,2.35,0,0,1,0,.26C44,19.85,48.57,20.51,48.57,20.51Z"/><path class="cls-8" d="M33.68,21.81l-.33.13.33-.12Z"/><path class="cls-8" d="M33.35,21.94l-.25.1Z"/><path class="cls-8" d="M33.1,22l-.83.35Z"/><path class="cls-1" d="M30.45,72.1C21.45,71,12.13,67.94,9.34,62,4.11,50.93,18.2,35.91,40.8,27c2.17-.86,4.34-2.83,6.49-3.5V2.54A80.34,80.34,0,0,0,30.74,9.42c-24.87,13.7-37,37-27.2,52,5.24,8,15.2,11.62,27.59,11.56C30.57,72.36,31,72.71,30.45,72.1Z"/><path d="M35,72.6A49.06,49.06,0,0,1,24,71.25a38,38,0,0,1-10.34-4,14.72,14.72,0,0,1-4.36-3.73,8.85,8.85,0,0,1-.78-1.29A13.23,13.23,0,0,1,8,60.92,11.88,11.88,0,0,1,7.36,58a14.29,14.29,0,0,1,.72-5.78,23,23,0,0,1,2.47-5.17A40.32,40.32,0,0,1,18,38.65,66,66,0,0,1,27,32a85.55,85.55,0,0,1,9.87-5.14c.85-.38,1.7-.74,2.56-1.09.43-.18.87-.36,1.18-.51a10.29,10.29,0,0,0,1.07-.58,26.19,26.19,0,0,1,5.12-2.81l-1.16,1.56L45.53,2.54l2.25,1.68a87.35,87.35,0,0,0-13,5,80.33,80.33,0,0,0-11.92,7.14c-7.48,5.43-14,12.34-18.16,20.52A29.92,29.92,0,0,0,1.34,50a21,21,0,0,0,1,6.63,20.55,20.55,0,0,0,3.2,5.93,23.75,23.75,0,0,0,11,7.9,35,35,0,0,0,6.79,1.73,55.2,55.2,0,0,0,7,.69V73a44.23,44.23,0,0,1-14-2A24.49,24.49,0,0,1,4.7,63.18,21.67,21.67,0,0,1,1.21,57,22,22,0,0,1,0,50,31.47,31.47,0,0,1,3.31,36.21C7.47,27.62,14.22,20.53,21.82,14.9A81.74,81.74,0,0,1,47.23,2.35l.25-.07v.26l0,20.93v.13l-.12,0a25.7,25.7,0,0,0-4.75,2.61,15.78,15.78,0,0,1-2.49,1.19c-.85.34-1.69.69-2.52,1.06a86.4,86.4,0,0,0-9.73,5,66,66,0,0,0-8.91,6.3,39,39,0,0,0-7.33,8c-2,3-3.46,6.55-3.2,10.19a10.67,10.67,0,0,0,1.67,5.08,14,14,0,0,0,4,3.58,37.54,37.54,0,0,0,10.07,4.12A51,51,0,0,0,35,72.4Z"/><path class="cls-2" d="M2.29,51.31S-.16,21,52.56,4.69c-.07,17.43,13.84,12.82,7.56,12.67C6.93,16.06,2.29,51.31,2.29,51.31Z"/><path class="cls-9" d="M14.27,35.72a1.5,1.5,0,0,1-1.65-1.11.77.77,0,0,1,.28-.8c.67-.5,1.3-1,1.89-1.46a11.38,11.38,0,0,0,3.65-4.57c1.56-3.81,2-4.41,2.94-5.52.19-.23.4-.48.66-.81a6.89,6.89,0,0,1-3.26.77,5.84,5.84,0,0,1-1.36-.15.78.78,0,0,1-.6-.63.77.77,0,0,1,.38-.79A16.73,16.73,0,0,0,23.38,14c1.69-3.33,5.75-6.84,9-7.82a19.48,19.48,0,0,1,4.34-.82c1.65-.15,2.85-.26,6.3-2.2A21.56,21.56,0,0,1,52.73.77c.43,0,.85,0,1.29,0,6.26.46,10.93,4,12.51,9.51,1.8,6.33-1.11,13.39-7.43,18a20.1,20.1,0,0,1-11.17,3.23h0a22.3,22.3,0,0,1-3.81-.34,5.58,5.58,0,0,0-.93-.09,1.86,1.86,0,0,0-1.79,1c-.12.18-.25.35-.38.51A8.07,8.07,0,0,1,36.38,34a8.78,8.78,0,0,1-2.71-.42l-.36-.11a5.36,5.36,0,0,0-1.52-.36,3.08,3.08,0,0,0-1.89.69.82.82,0,0,1-.44.14.67.67,0,0,1-.28-.06.77.77,0,0,1-.48-.54c-.47-1.93,1.07-2.85,1.9-3.34a3,3,0,0,0,.69-.51l-.64.25a10.15,10.15,0,0,1-1.83.56,8.85,8.85,0,0,1-1.66.14c-.31,0-.64,0-1,0H25.9a3.32,3.32,0,0,0-1.17.21,5.51,5.51,0,0,0-1.84,1.17A15.65,15.65,0,0,1,19.62,34a17.44,17.44,0,0,1-4.55,1.66A5,5,0,0,1,14.27,35.72Z"/><path d="M52.74,1.55c.4,0,.81,0,1.22,0,13.64,1,17,17.12,4.69,26.12a19.4,19.4,0,0,1-10.72,3.08,21,21,0,0,1-3.68-.32,6.15,6.15,0,0,0-1.06-.1c-1.79,0-2.14,1.08-2.76,1.8a8,8,0,0,1-4,1,8.37,8.37,0,0,1-2.48-.38,7.1,7.1,0,0,0-2.11-.52h0a3.93,3.93,0,0,0-2.34.83c-.32-1.35.69-2,1.54-2.5.61-.37,1.25-.74,1-1.39a.75.75,0,0,0-.74-.5h-.13a3.53,3.53,0,0,0-.78.24,8.89,8.89,0,0,1-1.68.52,8.43,8.43,0,0,1-1.52.13c-.29,0-.6,0-.92,0H25.9a4,4,0,0,0-1.43.25,6.35,6.35,0,0,0-2.1,1.32,14.77,14.77,0,0,1-3.11,2.14,16.58,16.58,0,0,1-4.33,1.59,4.24,4.24,0,0,1-.66.06c-.5,0-.81-.15-.9-.51.67-.51,1.32-1,1.91-1.48a12,12,0,0,0,3.87-4.88c2.06-5,2.12-4.3,3.76-6.49.66-.87.42-1.37-.09-1.37a1.42,1.42,0,0,0-.81.33,5.62,5.62,0,0,1-3.23.9,5.72,5.72,0,0,1-1.19-.12,17.58,17.58,0,0,0,6.49-6.94A16.65,16.65,0,0,1,32.64,7c5.1-1.52,5,.2,10.8-3.08a20.66,20.66,0,0,1,9.3-2.33m0-1.55A22,22,0,0,0,42.68,2.53c-3.31,1.86-4.43,2-6,2.1a20.61,20.61,0,0,0-4.49.85c-3.47,1-7.73,4.71-9.5,8.2A16,16,0,0,1,16.8,20a1.55,1.55,0,0,0-.74,1.57,1.53,1.53,0,0,0,1.18,1.28,6.93,6.93,0,0,0,1.54.16,8.7,8.7,0,0,0,1.11-.07,26.73,26.73,0,0,0-2.17,4.56,10.5,10.5,0,0,1-3.41,4.26c-.6.49-1.28,1-1.88,1.46a1.55,1.55,0,0,0-.57,1.59,2.26,2.26,0,0,0,2.41,1.7,6.36,6.36,0,0,0,.92-.08A18.19,18.19,0,0,0,20,34.67a16.64,16.64,0,0,0,3.44-2.37,4.81,4.81,0,0,1,1.58-1,2.57,2.57,0,0,1,.91-.16h.22c.37,0,.71,0,1,0s.71,0,1.05-.05A3.14,3.14,0,0,0,28,33.49a1.55,1.55,0,0,0,1,1.08,1.44,1.44,0,0,0,.54.1,1.52,1.52,0,0,0,.89-.28,2.42,2.42,0,0,1,1.46-.55,5.16,5.16,0,0,1,1.27.32l.36.12a9.73,9.73,0,0,0,3,.46c2.42,0,4.68-.91,5.23-1.56.15-.17.28-.36.42-.55.4-.56.51-.71,1.16-.71A4.79,4.79,0,0,1,44,32a22.92,22.92,0,0,0,4,.35A21,21,0,0,0,59.56,29c6.58-4.81,9.61-12.2,7.71-18.84C65.61,4.3,60.67.53,54.07.05c-.43,0-.89,0-1.33,0Z"/><path class="cls-1" d="M33.45,8.93c3.9-1.29,5.83-.12,9.65-2.68A18.11,18.11,0,0,1,53.67,3.53c9.47.84,10.92,8.75,10.31,12.28C62,27.24,50.26,29.5,44.34,28.34c-2-.4-2.57.17-3.87,1.16C38,31.33,34,31.14,33.24,30.57c-.07.06,2.42-1.95,1.1-4.31a11.49,11.49,0,0,1-6.25,1,4.68,4.68,0,0,0-4.3,1.17c-1.44,1.24-3.31,2.46-4.93,2.42a7.82,7.82,0,0,0,2.67-4.13,17.91,17.91,0,0,1,6.79-8.42c3.69-2.23.75-4.43-3.59-.67A7.94,7.94,0,0,1,26,14.68,13.72,13.72,0,0,1,33.45,8.93Z"/><path class="cls-2" d="M44.62,7.93a13,13,0,0,1-7.92,2.54c-5.17.15-6.47,2.74-6.42,2.69,1.18-.86,4.86-1.5,5.5.34.38,1.09.18,3.73-5.06,5.5-2.79.94-4.39,2.48-4.71,3.94,1.42-1.42,4-1.35,4.72-.3C32.53,25.26,36,24,36,24a3.31,3.31,0,0,1,.91,4A3.49,3.49,0,0,0,40,26.69a2.31,2.31,0,0,1,3.5-.11C43.07,20.52,45.69,13.32,44.62,7.93Z"/><path class="cls-2" d="M25.94,25.32a3.15,3.15,0,0,1,2.63-1.69c1.51,0,1,1.33-.18,1.16A4.54,4.54,0,0,0,25.94,25.32Z"/><path d="M43.12,26.41c-5.68-2.63-6.76-9-3.73-14.17,4-6.73,12.49-9.1,18-6.52s7.05,9.36,3,15.12S48.77,29,43.12,26.41Zm2.49-8.2,0,0c-.39.57-.79,1.13-1.16,1.71a.57.57,0,0,0-.06.5c.67,1.07,1.36,2.13,2.06,3.18a.69.69,0,0,0,.47.24A14.54,14.54,0,0,0,51,23.59a1.41,1.41,0,0,0,.92-.52c.88-1.12,1.76-2.25,2.61-3.39a.55.55,0,0,0,0-.53c-.55-1-1.15-2-1.72-3a.44.44,0,0,0-.5-.26c-1.65.13-3.3.24-5,.38a.87.87,0,0,0-.5.28C46.44,17.09,46,17.65,45.61,18.21Zm.82-1.9a.62.62,0,0,0,.15-.43c-.29-1.3-.61-2.59-.89-3.9,0-.24-.16-.33-.44-.31l-2.55.13a1.27,1.27,0,0,0-.92.49,14.36,14.36,0,0,0-2.1,3.24,1.43,1.43,0,0,0-.14.66,9.28,9.28,0,0,0,.73,3.28.59.59,0,0,0,.44.28c.94.09,1.88.15,2.83.19a.62.62,0,0,0,.43-.2C44.81,18.6,45.62,17.45,46.43,16.31ZM58.9,10c0-.29,0-.64,0-1a1.48,1.48,0,0,0-.84-1.61c-.65-.32-1.16-.81-1.79-1.14a6.85,6.85,0,0,0-4.62-.2.55.55,0,0,0-.3.33c-.12.43-.17.87-.27,1.3a.4.4,0,0,0,.28.54,12,12,0,0,1,3.45,2.05.77.77,0,0,0,.5.18C56.51,10.36,57.67,10.2,58.9,10ZM44.52,25.81a3.52,3.52,0,0,0,.69.37,12.39,12.39,0,0,0,7.55-.46,5.13,5.13,0,0,0,.91-.55c-.73-.43-1.38-.82-2-1.19a.58.58,0,0,0-.37,0,12.92,12.92,0,0,1-4.35.32.78.78,0,0,0-.5.1C45.8,24.83,45.2,25.3,44.52,25.81Zm-4.8-3.75c.06-.71.12-1.31.16-1.91a.8.8,0,0,0-.08-.37A11,11,0,0,1,39,16.44c0-.13,0-.26-.05-.39l-.12,0A8.86,8.86,0,0,0,39.72,22.06Z"/><path class="cls-10" d="M48.15,23.79c-.42,0-.83,0-1.25-.05a.55.55,0,0,1-.4-.2c-.74-1.09-1.43-2.16-2.06-3.18a.51.51,0,0,1,.06-.42c.26-.42.55-.83.83-1.24l.32-.46.37-.45c.3-.4.6-.8.91-1.19a1,1,0,0,1,.45-.26l2.63-.2L52.33,16h0a.39.39,0,0,1,.42.23c.24.43.5.87.75,1.3l1,1.7a.51.51,0,0,1,0,.45c-.74,1-1.5,2-2.26,2.95l-.35.44a1.33,1.33,0,0,1-.87.48A14.15,14.15,0,0,1,48.15,23.79Z"/><path d="M52.4,16a.28.28,0,0,1,.29.18c.24.44.5.87.75,1.3l1,1.71a.41.41,0,0,1,0,.36c-.74,1-1.52,2-2.27,3l-.34.43a1.28,1.28,0,0,1-.83.46,14.55,14.55,0,0,1-2.81.27c-.41,0-.82,0-1.24-.05a.5.5,0,0,1-.35-.16c-.75-1.11-1.42-2.15-2.06-3.18a.43.43,0,0,1,.07-.34c.26-.42.55-.83.83-1.24l.24-.35h0l.08-.1.33-.45c.3-.39.6-.81.92-1.2a.75.75,0,0,1,.4-.23l2.6-.2c.78-.06,1.56-.11,2.34-.18h.07m0-.15h-.08c-1.65.13-3.3.24-5,.38a.87.87,0,0,0-.5.28c-.43.54-.84,1.1-1.26,1.66l0,0c-.39.57-.79,1.13-1.16,1.71a.57.57,0,0,0-.06.5c.67,1.07,1.36,2.13,2.06,3.18a.69.69,0,0,0,.47.24c.41,0,.83.05,1.25.05A14.62,14.62,0,0,0,51,23.59a1.41,1.41,0,0,0,.92-.52c.88-1.12,1.76-2.25,2.61-3.39a.55.55,0,0,0,0-.53c-.55-1-1.15-2-1.72-3a.42.42,0,0,0-.42-.26Z"/><path class="cls-11" d="M55.46,19a.46.46,0,0,1-.36-.17q-.93-1.53-1.8-3.09a.51.51,0,0,1,0-.4l.92-2c.31-.67.62-1.33.92-2,.1-.21.15-.34.38-.36l1-.11c.66-.07,1.33-.14,2-.19h0a.67.67,0,0,1,.5.21,8.82,8.82,0,0,1,1.61,3.15,1.06,1.06,0,0,1,0,.61,10.64,10.64,0,0,1-1.29,3.12c-.31.43-.44.58-.89.66l-1.41.27-1.6.3Z"/><path d="M58.61,10.62v.15A.59.59,0,0,1,59,11a8.83,8.83,0,0,1,1.6,3.12,1.1,1.1,0,0,1,0,.57,10.6,10.6,0,0,1-1.28,3.09c-.3.42-.42.56-.85.64l-1.4.26c-.53.11-1.07.21-1.63.3a.42.42,0,0,1-.3-.13c-.55-.91-1.14-1.92-1.79-3.09a.4.4,0,0,1,0-.32c.3-.67.61-1.34.92-2s.62-1.33.92-2c.1-.22.14-.28.32-.3L56.59,11c.66-.07,1.33-.15,2-.2l0-.15m0,0h0c-1,.07-2,.2-3,.3-.29,0-.35.19-.45.41-.61,1.33-1.24,2.66-1.84,4a.57.57,0,0,0,0,.46c.59,1.05,1.18,2.08,1.8,3.1a.58.58,0,0,0,.43.21h0c1-.16,2-.39,3-.56.48-.09.63-.26.95-.7a10.79,10.79,0,0,0,1.3-3.14,1.43,1.43,0,0,0,0-.65,9.07,9.07,0,0,0-1.63-3.18.74.74,0,0,0-.53-.24Z"/><path class="cls-12" d="M43.55,19.86c-1,0-2-.11-2.83-.19a.47.47,0,0,1-.37-.23,8.71,8.71,0,0,1-.73-3.25,1.4,1.4,0,0,1,.13-.63,14.65,14.65,0,0,1,2.08-3.22,1.18,1.18,0,0,1,.87-.46H43l2.28-.13h0c.24,0,.31.07.35.26.16.71.32,1.42.49,2.13s.27,1.18.4,1.77a.63.63,0,0,1-.11.35l-.61.84c-.62.87-1.24,1.74-1.87,2.6a.58.58,0,0,1-.36.17Z"/><path d="M45.31,11.82c.15,0,.19,0,.23.2.15.7.32,1.41.48,2.11s.27,1.19.41,1.79a.82.82,0,0,1-.06.22h0l0,.08-.52.73-1.94,2.7a.5.5,0,0,1-.3.14h0c-1.06-.05-2-.11-2.82-.19a.48.48,0,0,1-.31-.19,9,9,0,0,1-.73-3.22,1.34,1.34,0,0,1,.13-.59,14.54,14.54,0,0,1,2.07-3.21A1.1,1.1,0,0,1,42.7,12l.43,0,2.13-.12h.05m0-.15h-.06l-2.55.13a1.27,1.27,0,0,0-.92.49,14.36,14.36,0,0,0-2.1,3.24,1.43,1.43,0,0,0-.14.66,9.28,9.28,0,0,0,.73,3.28.59.59,0,0,0,.44.28c.94.09,1.88.15,2.83.19h0a.64.64,0,0,0,.42-.2c.84-1.14,1.65-2.29,2.46-3.43h0a.7.7,0,0,0,.14-.43c-.29-1.3-.61-2.59-.89-3.9a.34.34,0,0,0-.38-.31Z"/><path class="cls-13" d="M55.3,10.42a.66.66,0,0,1-.39-.17,23,23,0,0,0-3.48-2.06.33.33,0,0,1-.24-.45c.05-.2.09-.4.13-.61s.08-.46.14-.7a.49.49,0,0,1,.25-.26,11.16,11.16,0,0,1,2.37-.31,4.46,4.46,0,0,1,2.19.5l.28.14c.19.1.42.21.66.35a8.69,8.69,0,0,1,.82.52A1.67,1.67,0,0,1,58.86,9l0,1-.88.05c-.89.12-1.74.24-2.6.34Z"/><path d="M54.08,5.94h0a4.38,4.38,0,0,1,2.15.49l.28.14c.19.1.43.21.66.35a8,8,0,0,1,.81.51A1.59,1.59,0,0,1,58.78,9l0,.71V9.9L58,10c-.92.12-1.78.24-2.68.34a.59.59,0,0,1-.37-.16,22.09,22.09,0,0,0-3.48-2.06c-.2-.08-.24-.16-.19-.36s.08-.41.12-.61.08-.47.14-.7a.65.65,0,0,1,.19-.21,11.06,11.06,0,0,1,2.36-.3m0-.16a11.87,11.87,0,0,0-2.39.31.55.55,0,0,0-.3.33c-.12.43-.17.87-.27,1.3a.4.4,0,0,0,.28.54,22.59,22.59,0,0,1,3.45,2.05.76.76,0,0,0,.46.19h0c1.16-.13,2.32-.29,3.55-.46,0-.29,0-.64,0-1a1.74,1.74,0,0,0-.86-1.73c-.19-.14-.52-.35-.83-.53s-.74-.38-.94-.49a4.63,4.63,0,0,0-2.23-.51Z"/><path class="cls-14" d="M42.55,11.1A3.65,3.65,0,0,1,44,8.44a14.41,14.41,0,0,1,3.37-1.85,7.1,7.1,0,0,1,2.44-.38c.29,0,.57,0,.85,0,.1.09.11.14.11.16-.07.56-.15,1-.25,1.5a.71.71,0,0,1-.27.34A30,30,0,0,0,45.9,11a.62.62,0,0,1-.33.11l-2.34.08-.71,0Z"/><path d="M49.81,6.29h0l.83,0a.24.24,0,0,1,.06.08c-.07.56-.16,1.05-.26,1.49a.59.59,0,0,1-.22.29A30.3,30.3,0,0,0,45.85,11a.52.52,0,0,1-.28.09l-2.43.08-.52,0v0A3.6,3.6,0,0,1,44.05,8.5,14.41,14.41,0,0,1,47.4,6.66a7.18,7.18,0,0,1,2.41-.37m0-.16a7.27,7.27,0,0,0-2.46.39A14.2,14.2,0,0,0,44,8.38a4,4,0,0,0-1.53,2.93l3.14-.1a.72.72,0,0,0,.37-.13A31.74,31.74,0,0,1,50.29,8.3a.69.69,0,0,0,.3-.38,13.64,13.64,0,0,0,.26-1.51.29.29,0,0,0-.18-.25c-.29,0-.57,0-.86,0Z"/><path class="cls-15" d="M48.18,26.49a11.27,11.27,0,0,1-3-.39,1.42,1.42,0,0,1-.46-.23l-.11-.07.44-.34c.47-.35.91-.68,1.36-1a.6.6,0,0,1,.36-.09c.51,0,.94.06,1.37.06a12,12,0,0,0,3.09-.38l.19,0c.05,0,.1,0,.12,0l1.56.9.37.22-.18.13a3.44,3.44,0,0,1-.6.35A13.5,13.5,0,0,1,48.18,26.49Z"/><path d="M51.47,24.1a.12.12,0,0,1,.08,0c.5.27,1,.56,1.51.87l.32.18-.09.07a3.5,3.5,0,0,1-.58.34,13.58,13.58,0,0,1-4.53.84A11.07,11.07,0,0,1,45.25,26a1.81,1.81,0,0,1-.44-.22v0l.34-.26c.47-.35.91-.69,1.36-1a.66.66,0,0,1,.32-.07h.07c.45,0,.89.06,1.3.06a12.62,12.62,0,0,0,3.11-.38l.17,0m0-.15a.71.71,0,0,0-.21,0,12.57,12.57,0,0,1-3.07.37c-.43,0-.86,0-1.28-.05h-.09a.7.7,0,0,0-.41.11c-.61.43-1.21.9-1.89,1.41a3.52,3.52,0,0,0,.69.37,11.42,11.42,0,0,0,3,.39,13.54,13.54,0,0,0,4.58-.85,5.13,5.13,0,0,0,.91-.55c-.73-.43-1.38-.82-2-1.19a.38.38,0,0,0-.16,0Z"/><path class="cls-16" d="M59.53,19.68a5.09,5.09,0,0,1,.66-2.05,17.24,17.24,0,0,0,.9-2.2l.22-.6c.09-.25.14-.41.39-.47a11,11,0,0,1-2.3,6.3C59.44,20.39,59.49,20,59.53,19.68Z"/><path d="M61.62,14.47a10.86,10.86,0,0,1-2.1,5.9c0-.22.06-.47.09-.68a5,5,0,0,1,.65-2,17.37,17.37,0,0,0,.9-2.21c.07-.2.14-.4.22-.6l0-.07c.06-.16.09-.26.22-.32m.16-.21c-.42.07-.46.3-.55.55a22.81,22.81,0,0,1-1.11,2.79,5,5,0,0,0-.66,2.07L59.28,21a11.17,11.17,0,0,0,2.5-6.69Z"/><path class="cls-17" d="M46.71,12.57c-.08-.28-.16-.56-.22-.85,0-.13.1-.23.2-.29a25.48,25.48,0,0,1,3.88-2.56.51.51,0,0,1,.36,0,9.83,9.83,0,0,1,3.11,2s-2-.87-2.95-1.35a.74.74,0,0,0-.75.07,22.46,22.46,0,0,0-3.06,1.82c-.48.31-.56.53-.47.86A.64.64,0,0,1,46.71,12.57Z"/><path class="cls-18" d="M39.72,22.06a8.86,8.86,0,0,1-.87-6l.12,0c0,.13,0,.26.05.39a11,11,0,0,0,.78,3.34.8.8,0,0,1,.08.37C39.84,20.75,39.78,21.35,39.72,22.06Z"/><path class="cls-19" d="M58.55,19.69a2.8,2.8,0,0,1-1.16,2.69c-.74.51-1.48,1-2.23,1.5a1.87,1.87,0,0,1-.69.22l.22-.17c1-.75,2-1.44,2.9-2.26.39-.37.54-.57.84-2Z"/><ellipse class="cls-19" cx="50.22" cy="16.04" rx="12.93" ry="10.54" transform="translate(-1.09 28.18) rotate(-31.03)"/><path class="cls-20" d="M51.67,7.61a.55.55,0,0,1,.27-.29,6.17,6.17,0,0,1,4.13.18l1.6.92a1.43,1.43,0,0,1,.76,1.41h0c0-.26,0-.57,0-.88,0-.64,0-1.11-.59-1.49,0,0-1.19-.68-1.76-1A6.11,6.11,0,0,0,52,6.3a.46.46,0,0,0-.27.29c-.1.38-.15.78-.24,1.17a.36.36,0,0,0,0,.33C51.6,7.93,51.63,7.77,51.67,7.61Z"/><path class="cls-20" d="M44,9.47A13.32,13.32,0,0,1,47.2,7.73a7.78,7.78,0,0,1,3.12-.34.29.29,0,0,1,.13.1c0-.31.1-.63.14-.94,0-.09-.09-.23-.17-.23a7.6,7.6,0,0,0-3.12.33,13.51,13.51,0,0,0-3.18,1.74,3.77,3.77,0,0,0-1.44,2.76h.15A3,3,0,0,1,44,9.47Z"/><path d="M27.54,73.45a62.43,62.43,0,0,0,6.81,8.62l-.67-10.61H26.29C26.7,72.13,27.11,72.79,27.54,73.45Z"/><path d="M69.06,69.87c-.06-.5-.12-1-.19-1.48q-.36-2.81-.72-5.56c0-.28-.07-.55-.11-.82l-.72-.13-1.9-.32-.65-.1a1,1,0,0,0,0-.17c-.26-2.48-.52-4.95-.79-7.39l-.09-.84-.78-.1c-1.63-.22-3.28-.39-4.92-.53h0l-.63,0-.87-.07h0c-1.56-.11-2.37-.18-3.93-.23l-1,0c0,.37,0,.73,0,1.09q.89-11.88,1.85-23.75c-.72,0-4.52-.05-5.24-.05Q49,42.47,49.66,55.58c0-.82,0-1.65,0-2.48,0-.36,0-.71,0-1.07H48.28l-.79,0h-.7l-1.31,0-.7,0h0l-1.08.06-1.11.07h0l-.89.07-.61,0h0c-1.65.13-3.31.31-4.94.52l-.76.1c0,.27-.07.55-.11.83-.31,2.44-.61,4.9-.92,7.4a1.37,1.37,0,0,1,0,.19c-.7.1-1.4.21-2.09.33l-.73.12c0,.28-.07.55-.11.83-.39,2.93-.79,5.9-1.18,8.91-.06.5-.13,1-.19,1.5l1.26-.25c2-.37,4-.69,6-1l.25,0,.25,0c.66-.08,1.33-.16,2-.22l2-.19,2-.15H44l.25,0c2-.11,3.26-.17,5.25-.17H50l2,0,2,.07c.67,0,1.34.06,2,.11h.19c.77.05.78.1,1.55.17l2,.19,2.31.28,1.42.19h0l.77.11c.66.1,1.33.21,2,.33l1.23.22c-.06-.49-.11-1-.17-1.46s-.11-1-.17-1.5c0-.13,0-.26,0-.4l.71.14Z"/><path d="M41.77,56.64q-13.92,4.41-27.32,9.64,7.92,3.3,15.59,6.86,4.56-4.68,9.31-9.27,12.18-.28,24.36.07c1.28,3,2.53,5.93,3.76,8.91q7.25-3.69,14.73-7.13Q62.37,60.31,41.77,56.64Z"/><path class="cls-21" d="M85,60.7l-.33-2.52c-.43-3.18-.88-6.32-1.32-9.41-.07-.46-.13-.92-.2-1.38l-1.29-.26c-1.11-.22-2.25-.43-3.36-.63l-1.15-.2a2.36,2.36,0,0,1,0-.28q-.72-6.19-1.47-12.17c-.06-.46-.11-.91-.17-1.37l-1.37-.2c-2.89-.42-5.82-.76-8.73-1h0l-1.1-.09L62.94,31h0c-2.76-.22-4.79-.36-7.55-.45l-1.78-.05L50,30.47H49l-2.14,0h0l-1.41,0-1.22,0h0L42,30.66l-1.25.06h0l-1.91.12c-.65,0-1.31.08-2,.14h0l-1.58.13-1.08.09h0c-2.91.26-5.86.6-8.76,1l-1.34.19c-.07.45-.13.9-.2,1.34q-.86,6-1.68,12.2c0,.11,0,.21,0,.32q-1.87.3-3.72.66l-1.28.24-.21,1.38Q15.84,56,14.8,63.69c-.12.87-.23,1.73-.35,2.59l2.25-.49c3.51-.76,7.08-1.41,10.62-1.92l.45-.07.44-.06c1.18-.17,2.37-.32,3.55-.46l3.55-.37c1.18-.12,2.38-.22,3.56-.3l.45,0,.44,0c3.54-.23,6.38-.34,9.92-.34h.89c1.18,0,2.38,0,3.56.06l2.81.13,3.55.22.17,0h.17c1.36.1,2.75.22,4.11.36l3.54.4c1.36.17,2.74.36,4.1.56l2.54.39h0l1.35.24c1.18.21,2.37.43,3.54.67l2.19.44-.3-2.52-.3-2.56L81.51,60l1.27.27Z"/><path class="cls-20" d="M25.23,34.49q-.72,5.41-1.4,10.85l2-.29a1.35,1.35,0,0,0,1.11-1.18l.39-3.54.16,0c1.73-.23,3.49-.43,5.24-.61A1.43,1.43,0,0,0,34,38.4c0-.62.11-1.24.16-1.86-2.07.19-4.16.42-6.22.69l-.24,0c.05-.41.1-.83.14-1.24L28,36c2.08-.26,4.19-.49,6.27-.68.08-1,.17-1.91.25-2.86-2.71.24-5.44.54-8.13.91A1.29,1.29,0,0,0,25.23,34.49Z"/><path class="cls-20" d="M41.38,40.31l-3.3.2-.21,0q.21-3.35.45-6.67a1.48,1.48,0,0,0-1.6-1.58l-1.07.08c-.29,3.34-.56,6.68-.83,10a1.34,1.34,0,0,0,1.43,1.48c2.27-.18,4.57-.32,6.84-.42a1.4,1.4,0,0,0,1.32-1.37q.18-5.11.37-10.23l-1.38,0a1.53,1.53,0,0,0-1.48,1.45q-.2,3.48-.37,7Z"/><path class="cls-20" d="M46,31.82q-.2,5.77-.38,11.55c1.61,0,3.23-.06,4.84-.06s1.71,0,3.31.07c0-.63,0-1.25,0-1.87a1.38,1.38,0,0,0-1.34-1.38c-1.7,0-1.88,0-3.57,0h-.19c0-2.35.07-4.7.12-7.05a1.24,1.24,0,0,0-1.26-1.26Z"/><path class="cls-20" d="M65.15,33.84q.31,4.62.62,9.25a1.25,1.25,0,0,0,1.09,1.16c2.39.25,4.79.56,7.18.91a1.14,1.14,0,0,0,1.28-1.29q-.51-4.68-1-9.36a1.22,1.22,0,0,0-1-1.07c-2.26-.32-4.55-.59-6.83-.81A1.12,1.12,0,0,0,65.15,33.84ZM72,41.64c-1.09-.15-2.19-.29-3.29-.41l-.16,0c-.15-1.86-.3-3.71-.46-5.57l.22,0,3.22.38.16,0,.54,5.6Z"/><path class="cls-20" d="M63.69,38.14l-.77-.45.72-.52a1.17,1.17,0,0,0,.48-1c-.05-.84-.11-1.68-.16-2.52a1.42,1.42,0,0,0-1.3-1.31c-2.63-.2-5.29-.35-7.92-.43.08,3.85.15,7.69.21,11.54,2.7.1,5.42.26,8.12.48a1.36,1.36,0,0,0,1.45-1.48c-.07-1.09-.13-2.17-.2-3.26A1.27,1.27,0,0,0,63.69,38.14Zm-6.06-3.32h.21c1.07.05,2.16.11,3.22.19h.17c0,.41.05.81.07,1.22l-.21,0L57.86,36h-.18C57.66,35.63,57.65,35.22,57.63,34.82Zm3.66,5.71c-1.09-.07-2.2-.15-3.29-.2h-.18c0-.42,0-.85,0-1.27H58l3.29.2.17,0,.06,1.27Z"/><path class="cls-22" d="M18.46,49.34q-.91,6.69-1.78,13.6c3.07-.65,6.19-1.21,9.29-1.69A1.35,1.35,0,0,0,27.06,60c.25-2.74.51-5.49.77-8.23-1.49.2-3,.43-4.47.67a1.63,1.63,0,0,0-1.31,1.45l-.3,2.56,2.37-.4.24,0c-.05.5-.1,1-.16,1.51l-.15,0c-1.16.19-2.33.38-3.5.6l-.24.05c.26-2.27.54-4.54.81-6.81l.15,0c1.77-.31,3.56-.59,5.35-.84a1.82,1.82,0,0,0,1.48-1.63c.06-.69.13-1.39.2-2.09-2.92.38-5.87.84-8.78,1.38A1.35,1.35,0,0,0,18.46,49.34Z"/><path class="cls-22" d="M30.25,60.66a1.54,1.54,0,0,0,1.28-1.46l.15-2,.16,0c1.17-.13,2.37-.25,3.54-.36l.21,0c0,.54-.06,1.07-.1,1.6A1.44,1.44,0,0,0,37,60l1.62-.12q.33-7.07.7-14.11c-2.79.18-5.6.43-8.38.74a1.77,1.77,0,0,0-1.51,1.61q-.6,6.42-1.15,12.84Zm2-10.85h.16c1.15-.13,2.3-.24,3.44-.33l.21,0c-.07,1.16-.14,2.31-.22,3.47h-.17c-1.15.1-2.32.22-3.47.34l-.22,0Z"/><path class="cls-22" d="M42.18,45.58l-1.67.08q-.34,7.05-.65,14.1c3.44-.22,5.4-.31,8.85-.32V57.26a1.71,1.71,0,0,0-1.65-1.79c-1.73,0-2,.05-3.68.12h-.2c.09-2.89.19-5.79.28-8.69A1.25,1.25,0,0,0,42.18,45.58Z"/><path class="cls-22" d="M56.88,56.31h.18c0,.63,0,1.26,0,1.88a1.51,1.51,0,0,0,1.34,1.52l1.9.12q-.29-7-.6-14.1c-2.69-.17-5.41-.28-8.11-.32A1.67,1.67,0,0,0,50,47.13V59.44l1.77,0a1.47,1.47,0,0,0,1.41-1.56c0-.58,0-1.15,0-1.73h.2C54.52,56.21,55.71,56.25,56.88,56.31Zm-3.8-4c0-1.15,0-2.3,0-3.44h.2c1.15,0,2.3.07,3.44.12h.18c0,1.15.07,2.3.1,3.45h-.2c-1.15,0-2.32-.1-3.48-.13Z"/><path class="cls-22" d="M66.4,56.91l.16-.34.18.34,1.51,2.86a1.78,1.78,0,0,0,1.34,1l2.77.38c-1.39-2.64-2.81-5.26-4.21-7.81l-.06-.09,0-.1c1-2.13,2-4.22,3-6.29-1.14-.15-2.31-.3-3.47-.42-.48.95-1,1.91-1.42,2.87,0,.11-.1.21-.16.32l-.17-.31c-.46-.82-.92-1.62-1.38-2.42a1.79,1.79,0,0,0-1.38-.9l-2.53-.2c1.32,2.3,2.61,4.62,3.87,6.92l.06.1a.47.47,0,0,0,0,.1c-1.11,2.3-2.2,4.64-3.29,7l3.72.33C65.41,59.11,65.9,58,66.4,56.91Z"/><path class="cls-22" d="M80.79,48.4A1.6,1.6,0,0,0,79,50.25c.12.93.23,1.86.34,2.79L79,53l-3.42-.59-.15,0-.39-3.6a1.79,1.79,0,0,0-1.47-1.6L72,47q.35,3.64.67,7.29a1.8,1.8,0,0,0,1.46,1.66l2,.32.15,0q.29,2.81.56,5.61c1,.18,2.12.38,3.17.58q-.31-2.82-.64-5.64l.24.05c.37.06.74.14,1.11.21a1.61,1.61,0,0,0,1.83-1.91c-.28-2.19-.57-4.39-.86-6.58Z"/><path d="M49,30.48c1.06,0,4.66,0,4.66,0l1.78.05c2.75.09,4.79.24,7.55.45h0l1.55.14,1.1.09h0c2.91.27,5.84.62,8.73,1a1.82,1.82,0,0,1,1.54,1.57q.75,6,1.47,12.17a2.36,2.36,0,0,0,0,.28l1.15.2c1.11.2,2.25.41,3.36.63l1.29.26c.07.46.13.92.2,1.38.45,3.09.88,6.22,1.32,9.41A1.72,1.72,0,0,1,83,60.25l-.22,0L81.51,60l.09.69.3,2.56.3,2.52q-7.49,3.45-14.73,7.13l-1.23-.22-2-.33-.77-.11h0L62.06,72l-2.31-.28-2-.19c-.77-.07-.78-.12-1.55-.17H56c-.66,0-1.34-.08-2-.11l-2-.07-2,0h-.5c-2,0-3.26.06-5.25.17l-.25,0h-.25l-2,.15-2,.19c-.67.06-1.34.14-2,.22l-.25,0-.25,0c-2,.26-4,.58-6,1L30,73.14q-7.66-3.57-15.59-6.86c.12-.86.23-1.72.35-2.59q1-7.74,2.13-15.15a1.91,1.91,0,0,1,1.49-1.62q1.86-.36,3.72-.66c0-.11,0-.21,0-.32q.83-6.21,1.68-12.2a1.82,1.82,0,0,1,1.54-1.53c2.91-.41,5.84-.75,8.76-1h0l1.08-.09L36.82,31h0l2-.14,1.91-.12h0L42,30.66l2.32-.09h0l1.22,0,1.41,0h0l2.14,0H49m0-1.16h-.31l-1.63,0h-.14l-1.41,0-1.23,0H44.1c-.74,0-1.48.06-2.21.09l-1.15,0h-.12c-.64,0-1.28.07-1.91.12l-1.84.12h-.16L35.13,30,34.05,30l-.14,0c-2.93.26-5.85.61-8.69,1a3,3,0,0,0-2.61,2.55Q21.8,39.43,21,45.27c-1,.16-1.9.33-2.84.51a3.12,3.12,0,0,0-2.47,2.61q-1.08,7.41-2.1,15.16c-.11.86-.23,1.72-.34,2.59a1.14,1.14,0,0,0,.71,1.2q7.91,3.28,15.56,6.84a1.14,1.14,0,0,0,.54.11l.17,0L31.52,74c2-.37,3.94-.69,5.91-.94l.25,0,.24,0,2-.23,2-.18c.64-.06,1.31-.1,2-.14l.25,0h.24c2.1-.12,3.28-.17,5.18-.17H50l2,0,2,.07,2,.11h.19l.74.08.79.09,2,.19,2.27.28,1.31.17.09,0,.76.11c.66.1,1.32.21,2,.33l1.23.22h.15a1.13,1.13,0,0,0,.57-.12q7.24-3.67,14.72-7.11a1.15,1.15,0,0,0,.66-1.18c-.09-.84-.19-1.68-.29-2.51C83,62.52,83,62,82.89,61.4h0a2.78,2.78,0,0,0,2.14-.81A3.05,3.05,0,0,0,85.88,58q-.63-4.71-1.3-9.42c-.06-.46-.13-.92-.19-1.38a1.19,1.19,0,0,0-1-1L82.13,46l-3.39-.63-.25,0c-.14-1.2-.27-2.39-.41-3.59l-1-8a3,3,0,0,0-2.61-2.59c-2.82-.41-5.73-.75-8.67-1l-.14,0L64.6,30l-1.55-.14h-.17c-2.6-.2-4.69-.35-7.45-.44l-1.78-.06-4.7,0Z"/><polygon class="cls-23" points="67.33 68.83 72.63 63.83 73.16 63.52 75.29 63.52 67.33 68.83"/><polygon class="cls-24" points="24.86 64.14 32.01 68.04 25.95 63.51 24.86 64.14"/><polygon class="cls-25" points="14.47 66.27 23.31 70.17 15.56 65.64 14.47 66.27"/><polygon class="cls-26" points="82.18 65.71 73.34 69.61 81.09 65.08 82.18 65.71"/><polygon class="cls-27" points="35.17 62.09 43.02 69.86 36.86 61.98 35.17 62.09"/><polygon class="cls-28" points="60.69 62.52 55.15 69.74 59.2 62.18 60.69 62.52"/></g></g></svg>