<?xml version="1.0" encoding="UTF-8"?>
<svg id="GRAFICA" xmlns="http://www.w3.org/2000/svg" viewBox="0 0 128 128">
  <defs>
    <style>
      .cls-1 {
        fill: #0d1d7c;
      }
    </style>
  </defs>
  <path class="cls-1" d="m123.39,65.45c-.06-5.57-3.93-10.41-9.3-11.87-.99-.27-2.02-.41-3.13-.61v-.04s.05,0,.05,0l.67.04h0l1.06.06c.76-13.99-3.2-26.11-11.77-36.01C92.03,6.66,80.57.97,66.94.11,65.82.04,64.69,0,63.59,0c-10.25,0-19.63,3.05-27.88,9.07-14.4,10.5-21.31,25.29-20.55,43.96v.3c-6.78,1.38-10.61,6.25-10.61,13.5,0,6.55,0,13.09,0,19.64.01,7.81,5.47,13.3,13.24,13.32,5.31.01,10.61,0,15.92,0,3.15,0,4.8-1.67,4.8-4.86,0-12.34,0-24.68,0-37.02,0-3.15-1.68-4.82-4.83-4.83-1.9,0-3.8,0-5.73,0v-.24c-.36-7.43.77-14.03,3.35-19.6,2.69-5.81,7.06-10.69,12.98-14.52,6.43-4.16,13.05-6.26,19.67-6.26,6.35,0,12.74,1.94,18.99,5.78,6.16,3.78,10.72,8.69,13.54,14.59,2.71,5.66,3.91,12.39,3.57,20.02v.23c-1.87,0-3.67,0-5.47,0-3.55,0-5.11,1.55-5.11,5.07v36.49c0,3.6,1.55,5.15,5.17,5.15,2.07,0,4.15,0,6.23,0v6.22c0,2.59-2.11,4.69-4.69,4.69h-16.99c-1.83-4.82-6.45-8.26-11.91-8.26h-7.45c-7.06,0-12.78,5.72-12.78,12.78s5.72,12.78,12.78,12.78h7.45c5.46,0,10.08-3.44,11.91-8.26h16.99c7.57,0,13.74-6.16,13.74-13.74v-6.19h.95c.23-.01.53-.03.83-.06,6.59-.64,11.63-5.89,11.71-12.41.09-7.3.08-14.6,0-21.89Z"/>
</svg>