<svg xmlns="http://www.w3.org/2000/svg" xmlns:xlink="http://www.w3.org/1999/xlink" viewBox="0 0 143 143"><defs><style>.cls-1{fill:none;stroke-miterlimit:10;stroke-width:3px;stroke:url(#Degradado_sin_nombre_79);}.cls-2{fill:#ff6f6c;}.cls-3{fill:#fff;}</style><linearGradient id="Degradado_sin_nombre_79" x1="71.5" y1="143" x2="71.5" gradientUnits="userSpaceOnUse"><stop offset="0" stop-color="#1f7afc" stop-opacity="0"/><stop offset="0.12" stop-color="#1f7afc" stop-opacity="0.04"/><stop offset="0.32" stop-color="#1f7afc" stop-opacity="0.16"/><stop offset="0.59" stop-color="#1f7afc" stop-opacity="0.35"/><stop offset="0.9" stop-color="#1f7afc" stop-opacity="0.62"/><stop offset="1" stop-color="#1f7afc" stop-opacity="0.7"/></linearGradient></defs><title>crypto</title><g id="Capa_2" data-name="Capa 2"><g id="GRAFICA"><circle class="cls-1" cx="71.5" cy="71.5" r="70"/><circle class="cls-2" cx="71.5" cy="71.5" r="55.25"/><path class="cls-3" d="M71.5,41.68A29.82,29.82,0,1,0,101.32,71.5,29.85,29.85,0,0,0,71.5,41.68Zm0,4a25.74,25.74,0,0,1,18.19,7.51L86.6,55.85A21.72,21.72,0,0,0,56.22,56L53.11,53.4A25.73,25.73,0,0,1,71.5,45.68Zm5.79,34.74-5.79-3-5.79,3L66.81,74,62.12,69.4l6.48-1,2.9-5.87,2.9,5.87,6.48,1L76.19,74ZM45.68,71.5a25.66,25.66,0,0,1,4.85-15l3.11,2.62a21.74,21.74,0,0,0,.14,25L50.7,86.78A25.69,25.69,0,0,1,45.68,71.5ZM71.5,97.32a25.74,25.74,0,0,1-18.19-7.51l3.09-2.65A21.75,21.75,0,0,0,86.78,87l3.11,2.61A25.71,25.71,0,0,1,71.5,97.32Zm21-10.77-3.11-2.62a21.76,21.76,0,0,0-.14-25.06l3.08-2.65a25.77,25.77,0,0,1,.17,30.33Z"/></g></g></svg>