<?xml version="1.0" encoding="utf-8"?>
<!-- Generator: Adobe Illustrator 24.1.2, SVG Export Plug-In . SVG Version: 6.00 Build 0)  -->
<svg version="1.1" id="Layer_1" xmlns="http://www.w3.org/2000/svg" xmlns:xlink="http://www.w3.org/1999/xlink" x="0px" y="0px"
	 viewBox="0 0 50 50" style="enable-background:new 0 0 50 50;" xml:space="preserve">
<style type="text/css">
	.st0{fill:#FFFFFF;}
	.st1{fill:none;stroke:#FFFFFF;stroke-width:2;stroke-miterlimit:10;}
</style>
<g>
	<g>
		<g transform="scale(5.12,5.12)">
			<path class="st0" d="M7.3,3C6.7,2.5,5.8,2.4,5.8,2.4c-0.1,0-0.1,0-0.1,0.1c0,0,0,0,0,0.1C6,2.7,6.5,2.8,6.9,3.1
				c0.1,0,0.1,0.1,0,0.2c0,0-0.1,0.1-0.1,0.1c0,0-0.1,0-0.1,0C6,2.9,5.1,2.8,4.9,2.8c-0.2,0-1.1,0-1.8,0.5c-0.1,0-0.2,0-0.2,0
				c0-0.1,0-0.2,0-0.2c0.4-0.3,0.9-0.4,1.3-0.5c0-0.1,0-0.1,0-0.1c0-0.1-0.1-0.1-0.1-0.1c0,0-1,0.1-1.5,0.6C2.2,3.2,1.6,4.9,1.6,6.3
				c0,0,0,0.1,0,0.1C2,7.2,3.2,7.4,3.4,7.4c0,0,0,0,0,0c0,0,0.1,0,0.1-0.1l0.3-0.4C3.1,6.7,2.7,6.4,2.7,6.4c-0.1-0.1-0.1-0.1,0-0.2
				c0.1-0.1,0.1-0.1,0.2,0c0,0,0.7,0.6,2,0.6c1.3,0,2-0.6,2-0.6c0.1-0.1,0.2,0,0.2,0c0.1,0.1,0,0.2,0,0.2c0,0-0.4,0.3-1.1,0.5
				l0.3,0.4c0,0,0.1,0.1,0.1,0.1c0,0,0,0,0,0c0.3,0,1.4-0.2,1.8-0.9c0,0,0,0,0-0.1C8.3,4.9,7.6,3.2,7.3,3L7.3,3z M4,5.8
				c-0.3,0-0.5-0.3-0.5-0.6S3.7,4.6,4,4.6s0.5,0.3,0.5,0.6S4.2,5.8,4,5.8z M5.9,5.8c-0.3,0-0.5-0.3-0.5-0.6s0.2-0.6,0.5-0.6
				c0.3,0,0.5,0.3,0.5,0.6S6.1,5.8,5.9,5.8z"/>
		</g>
	</g>
	<path class="st1" d="M24.9,48.8L24.9,48.8c-13,0-23.5-10.5-23.5-23.5v0c0-13,10.5-23.5,23.5-23.5h0c13,0,23.5,10.5,23.5,23.5v0
		C48.4,38.3,37.8,48.8,24.9,48.8z"/>
</g>
</svg>
