<svg xmlns="http://www.w3.org/2000/svg" xmlns:xlink="http://www.w3.org/1999/xlink" viewBox="0 0 143 143"><defs><style>.cls-1{fill:#1f7afc;}.cls-2{fill:none;stroke-miterlimit:10;stroke-width:3px;stroke:url(#Degradado_sin_nombre_79);}.cls-3{fill:#fff;}</style><linearGradient id="Degradado_sin_nombre_79" x1="71.5" y1="143" x2="71.5" gradientUnits="userSpaceOnUse"><stop offset="0" stop-color="#1f7afc" stop-opacity="0"/><stop offset="0.12" stop-color="#1f7afc" stop-opacity="0.04"/><stop offset="0.32" stop-color="#1f7afc" stop-opacity="0.16"/><stop offset="0.59" stop-color="#1f7afc" stop-opacity="0.35"/><stop offset="0.9" stop-color="#1f7afc" stop-opacity="0.62"/><stop offset="1" stop-color="#1f7afc" stop-opacity="0.7"/></linearGradient></defs><title>education</title><g id="Capa_2" data-name="Capa 2"><g id="GRAFICA"><circle class="cls-1" cx="71.5" cy="71.5" r="55"/><circle class="cls-2" cx="71.5" cy="71.5" r="70"/><path class="cls-3" d="M92.51,83.54c.95-.1,1.35-.64,1.35-1.77q0-18.81,0-37.62c0-1.77-1.21-1.77-1.6-1.77H89.48q-16.62,0-33.24,0a6.38,6.38,0,0,0-1.42.15,7.45,7.45,0,0,0-5.68,7.57c0,4.42,0,8.85,0,13.27V87.66a9.67,9.67,0,0,0,.07,1.5c.6,3.9,3.47,6.52,7.13,6.52H92.58a1.47,1.47,0,0,0,1.27-1.33,1.61,1.61,0,0,0-.69-1.56v0L93,92.71a1,1,0,0,0-.18-.09l-.12,0c-.14,0-.29-.08-.42-.14a4.94,4.94,0,0,1,.22-8.92ZM68.76,61.05l2.74-5.56,2.74,5.56,6.14.89-4.44,4.32,1,6.11L71.5,69.49,66,72.37l1-6.11-4.44-4.32ZM62.54,92.56H56A4.39,4.39,0,0,1,52,88.78a4.47,4.47,0,0,1,2.75-4.92,5.76,5.76,0,0,1,1.93-.28H88.69a7.42,7.42,0,0,0,0,9Z"/></g></g></svg>