<?xml version="1.0" encoding="UTF-8"?>
<svg xmlns="http://www.w3.org/2000/svg" xmlns:xlink="http://www.w3.org/1999/xlink" viewBox="0 0 128 128">
  <defs>
    <style>
      .cls-1 {
        fill: #0d1d7c;
      }

      .cls-2, .cls-3 {
        fill: none;
      }

      .cls-4 {
        fill: url(#Degradado_sin_nombre_181);
      }

      .cls-3 {
        clip-path: url(#clippath);
      }
    </style>
    <clipPath id="clippath">
      <rect class="cls-2" x="-1451.39" y="308.19" width="1920" height="350.7"/>
    </clipPath>
    <radialGradient id="Degradado_sin_nombre_181" data-name="Degradado sin nombre 181" cx="-1932.33" cy="546.97" fx="-1932.33" fy="546.97" r="501.83" gradientTransform="translate(2417.24 -926.61) scale(1.51)" gradientUnits="userSpaceOnUse">
      <stop offset="0" stop-color="#1f7af7"/>
      <stop offset=".02" stop-color="#1f7af7" stop-opacity=".97"/>
      <stop offset=".3" stop-color="#1f7af7" stop-opacity=".63"/>
      <stop offset=".55" stop-color="#1f7af7" stop-opacity=".36"/>
      <stop offset=".75" stop-color="#1f7af7" stop-opacity=".17"/>
      <stop offset=".91" stop-color="#1f7af7" stop-opacity=".05"/>
      <stop offset="1" stop-color="#1f7af7" stop-opacity="0"/>
    </radialGradient>
  </defs>
  <g id="Fondo_2" data-name="Fondo 2">
    <g class="cls-3">
      <circle class="cls-4" cx="-491.39" cy="-103.3" r="755.37"/>
    </g>
  </g>
  <g id="GRAFICA">
    <g id="EIKEWk">
      <g>
        <path class="cls-1" d="m.07,29.89c.62-1.65,1.87-2.48,3.52-3.03,19.39-6.43,38.76-12.89,58.12-19.39,1.58-.53,3.02-.52,4.6,0,19.33,6.48,38.68,12.93,58.02,19.38.32.11.64.2.94.32,1.65.65,2.62,1.98,2.61,3.59,0,1.6-.96,2.97-2.65,3.56-3.21,1.12-6.45,2.18-9.67,3.25-16.45,5.49-32.91,10.96-49.35,16.47-1.49.5-2.86.53-4.36.02-19.45-6.51-38.91-13-58.37-19.46-1.61-.53-2.79-1.4-3.41-2.98v-1.75Z"/>
        <path class="cls-1" d="m103.85,51.57v1.39c0,7.69-.03,15.39.02,23.08.01,1.79-.58,3.15-1.89,4.4-8.99,8.53-19.6,13.7-31.92,14.94-17.21,1.73-32.15-3.46-44.58-15.54-.72-.7-1.28-1.96-1.29-2.96-.1-8.27-.05-16.55-.05-24.83,0-.08.04-.16.11-.42.41.12.82.23,1.22.36,11.39,3.79,22.78,7.54,34.15,11.39,2.93.99,5.74,1.01,8.66.03,10.19-3.43,15.72-5.25,34.37-11.46.31-.1.63-.2,1.19-.37Z"/>
        <path class="cls-1" d="m119.89,46.2c0,.71,0,1.21,0,1.7,0,12.27,0,24.55-.02,36.82,0,.84.21,1.27,1.04,1.66,4.46,2.11,6.88,5.7,6.96,10.64.1,6.61.04,13.23.02,19.85,0,2.42-1.56,4.01-3.97,4.02-5.2.03-10.4.03-15.6,0-2.37-.01-3.92-1.55-3.93-3.91-.02-6.7-.08-13.4.02-20.1.08-4.91,2.54-8.42,6.95-10.51.82-.39,1.05-.79,1.05-1.65-.03-11.61,0-23.22-.04-34.83,0-.96.29-1.37,1.19-1.64,2.06-.61,4.09-1.33,6.32-2.07Z"/>
      </g>
    </g>
  </g>
</svg>