<?xml version="1.0" encoding="UTF-8"?>
<svg id="Layer_1" data-name="Layer 1" xmlns="http://www.w3.org/2000/svg" viewBox="0 0 50 50">
  <defs>
    <style>
      .cls-1 {
        fill: #fff;
      }

      .cls-2 {
        fill: none;
        stroke: #fff;
        stroke-miterlimit: 10;
        stroke-width: 2px;
      }
    </style>
  </defs>
  <path class="cls-2" d="m25,48.8h0c-13,0-23.5-10.5-23.5-23.5h0C1.5,12.3,12,1.8,25,1.8h0c13,0,23.5,10.5,23.5,23.5h0c0,13-10.6,23.5-23.5,23.5Z"/>
  <g>
    <path class="cls-1" d="m33.32,36.63c0-2.62.07-5.19-.03-7.75-.05-1.15.07-2.35-.47-3.47-.33-.68-.83-1.13-1.5-1.21-2.16-.28-3.54.36-3.72,2.73-.18,2.51-.09,5.03-.12,7.55,0,.73,0,1.46,0,2.2-1.4,0-2.7,0-4,0-1.16,0-1.15,0-1.15-1.19,0-4.75,0-9.5,0-14.26,0-.4,0-.8,0-1.23h4.86v2.14c.21-.16.35-.22.43-.34,1.11-1.5,2.6-2.2,4.46-2.21,1.11,0,2.2.06,3.22.51,1.68.74,2.44,2.22,2.77,3.9.24,1.19.38,2.42.4,3.63.06,2.77,0,5.55.04,8.32,0,.55-.19.69-.71.68-1.47-.03-2.93-.01-4.48-.01Z"/>
    <path class="cls-1" d="m19.02,36.68c-1.35,0-2.57,0-3.79,0-.12,0-.25-.01-.37,0-1.03.06-1.01.06-1.01-.99,0-4.94,0-9.87,0-14.81,0-.93-.02-.93.97-.93,1.38,0,2.76,0,4.2,0v16.73Z"/>
    <path class="cls-1" d="m13.49,14.6c-.04-1.68,1.25-2.97,2.97-2.95,1.57.02,2.95,1.35,2.94,3.01,0,1.7-1.59,2.96-2.96,2.98-1.65.03-3.06-1.61-2.94-3.05Z"/>
  </g>
</svg>