<svg xmlns="http://www.w3.org/2000/svg" viewBox="0 0 26.73 26.7"><defs><style>.cls-1{fill:#0d1d7c;}</style></defs><title>in</title><g id="Capa_2" data-name="Capa 2"><g id="GRAFICA"><path class="cls-1" d="M20,0H6.7A6.71,6.71,0,0,0,0,6.7V20A6.7,6.7,0,0,0,6.7,26.7H20A6.7,6.7,0,0,0,26.73,20V6.7A6.75,6.75,0,0,0,20,0ZM8.9,21.62H5.09v-11H8.9ZM7,8.9A2,2,0,1,1,8.92,7,2,2,0,0,1,7,8.9ZM21.62,21.62H18.44V16.28c0-1.3-.17-3-1.93-3s-2.1,1.4-2.1,2.86v5.43H11.23v-11h3v1.48h.09a3.46,3.46,0,0,1,3.24-1.5c3.49,0,4.11,2,4.11,5v6Z"/></g></g></svg>