<?xml version="1.0" encoding="utf-8"?>
<!-- Generator: Adobe Illustrator 24.0.1, SVG Export Plug-In . SVG Version: 6.00 Build 0)  -->
<svg version="1.1" id="Capa_1" xmlns="http://www.w3.org/2000/svg" xmlns:xlink="http://www.w3.org/1999/xlink" x="0px" y="0px"
	 viewBox="0 0 26.7 26.7" style="enable-background:new 0 0 26.7 26.7;" xml:space="preserve">
<style type="text/css">
	.st0{fill:#00D7FF;}
</style>
<title>in</title>
<g id="Capa_2_1_">
	<g id="GRAFICA">
		<path class="st0" d="M20,0H6.7C3,0,0,3,0,6.7V20c0,3.7,3,6.7,6.7,6.7c0,0,0,0,0,0H20c3.7,0,6.7-3,6.7-6.7c0,0,0,0,0,0V6.7
			C26.7,3,23.7,0,20,0z M8.9,21.6H5.1v-11h3.8V21.6z M7,8.9C5.9,8.9,5,8.1,4.9,7c0-1.1,0.8-2,1.9-2.1s2,0.8,2.1,1.9
			c0,0.1,0,0.1,0,0.2C8.9,8,8,8.9,7,8.9z M21.6,21.6h-3.2v-5.3c0-1.3-0.2-3-1.9-3s-2.1,1.4-2.1,2.9v5.4h-3.2v-11h3v1.5h0.1
			c0.7-1.1,2-1.6,3.2-1.5c3.5,0,4.1,2,4.1,5L21.6,21.6L21.6,21.6z"/>
	</g>
</g>
</svg>
