<?xml version="1.0" encoding="UTF-8"?>
<svg id="Layer_1" data-name="Layer 1" xmlns="http://www.w3.org/2000/svg" viewBox="0 0 50 50">
  <defs>
    <style>
      .cls-1 {
        fill: #fff;
      }

      .cls-2 {
        fill: none;
        stroke: #fff;
        stroke-miterlimit: 10;
        stroke-width: 2px;
      }
    </style>
  </defs>
  <path class="cls-2" d="m25,48.8h0c-13,0-23.5-10.5-23.5-23.5h0C1.5,12.3,12,1.8,25,1.8h0c13,0,23.5,10.5,23.5,23.5h0c0,13-10.6,23.5-23.5,23.5Z"/>
  <g>
    <path class="cls-1" d="m28.18,27.03c-.28,2.76-1.57,4.9-3.89,6.4-1.49.96-3.12,1.54-4.91,1.44-2-.11-3.78-.79-5.28-2.18-1.36-1.26-2.31-2.74-2.73-4.54-.52-2.21-.18-4.3.92-6.27,1.31-2.36,3.32-3.73,6-4.15,1.8-.29,3.51-.08,5.15.7,1.97.94,3.32,2.48,4.12,4.48.31.77.42,1.63.63,2.44,0,.56,0,1.11,0,1.67Z"/>
    <path class="cls-1" d="m29.21,25.01c.2-1.95.65-3.81,1.8-5.46,1.39-1.98,3.38-1.84,4.73-.08,1.09,1.43,1.58,3.12,1.83,4.89.32,2.23.09,4.41-.72,6.51-.51,1.31-1.11,2.59-2.49,3.25-.92.44-2.34.09-2.96-.69-1.23-1.54-1.83-3.31-2.05-5.23-.03-.31-.09-.61-.14-.92,0-.75,0-1.51,0-2.26Z"/>
    <path class="cls-1" d="m41.39,29.18c.03.11.06.23.09.34-.11.53-.22,1.07-.34,1.6-.2.85-.31,1.74-1.05,2.37-.66-.48-.85-1.18-.95-1.87-.2-1.4-.35-2.81-.48-4.22-.24-2.52-.03-5,.72-7.41.11-.35.38-.82.66-.9.52-.13.6.46.7.82.21.83.36,1.69.53,2.53.03.14.07.29.1.43v.22c-.02.12-.05.25-.08.37,0,.15.01.31.02.46.03.16.06.32.09.47-.03.34-.1.69-.08,1.03.03.42.13.84.2,1.26-.04.36-.07.71-.11,1.07,0,.16,0,.32,0,.47,0,.16,0,.32,0,.47,0,.16,0,.32,0,.48Z"/>
    <path class="cls-1" d="m41.28,23.46c.03-.12.05-.25.08-.37,0,.13.02.25.03.38,0,0-.05,0-.05,0h-.05Z"/>
    <ellipse class="cls-1" cx="40.35" cy="26.28" rx="1.38" ry="4.91"/>
  </g>
  <path d="m40.33,19.35c.29.6.58,1.2.87,1.8"/>
  <ellipse class="cls-1" cx="40.35" cy="26.3" rx="1.8" ry="7.2"/>
</svg>