<?xml version="1.0" encoding="utf-8"?>
<!-- Generator: Adobe Illustrator 27.7.0, SVG Export Plug-In . SVG Version: 6.00 Build 0)  -->
<svg version="1.1" id="Capa_2_00000106141164108018702150000012720179892794585485_"
	 xmlns="http://www.w3.org/2000/svg" xmlns:xlink="http://www.w3.org/1999/xlink" x="0px" y="0px" viewBox="0 0 122 131.7"
	 style="enable-background:new 0 0 122 131.7;" xml:space="preserve">
<style type="text/css">
	.st0{fill-rule:evenodd;clip-rule:evenodd;fill:#0C60C4;}
	.st1{fill-rule:evenodd;clip-rule:evenodd;fill:#044382;}
	.st2{fill-rule:evenodd;clip-rule:evenodd;fill:url(#SVGID_1_);}
	.st3{fill-rule:evenodd;clip-rule:evenodd;fill:url(#SVGID_00000116204303742142873640000013684050575448989597_);}
	.st4{fill-rule:evenodd;clip-rule:evenodd;fill:#FFFFFF;}
	.st5{fill:#FFFFFF;}
	.st6{fill-rule:evenodd;clip-rule:evenodd;fill:#1D8AED;}
	.st7{enable-background:new    ;}
</style>
<g id="GRAFICA">
	<g>
		<g>
			<path class="st0" d="M32.9,84.8c-8.7,1.1-17.4,3-25.9,5.6c-0.9,0.3-1.7-0.5-1.5-1.4c1-3.3,2.1-6.6,3.4-9.9
				c-2.7-2.2-5.5-4.3-8.4-6.4c-0.8-0.6-0.6-1.8,0.3-2.1c9.6-3,19.5-5.1,29.4-6.4C31.1,71.2,32,78,32.9,84.8L32.9,84.8z"/>
			<path class="st0" d="M89.2,84.8c8.7,1.1,17.4,3,25.9,5.6c0.9,0.3,1.7-0.5,1.5-1.4c-1-3.3-2.1-6.6-3.4-9.9
				c2.7-2.2,5.5-4.3,8.4-6.4c0.8-0.6,0.6-1.8-0.3-2.1c-9.6-3-19.5-5.1-29.4-6.4C90.9,71.2,90.1,78,89.2,84.8L89.2,84.8z"/>
			<polygon class="st1" points="12.6,83.8 15,76 107.1,76 109.3,83.8 			"/>
		</g>
		
			<linearGradient id="SVGID_1_" gradientUnits="userSpaceOnUse" x1="62.0438" y1="142.7332" x2="58.7412" y2="28.8641" gradientTransform="matrix(1 0 0 -1 0 172.8889)">
			<stop  offset="2.000000e-02" style="stop-color:#FFD400"/>
			<stop  offset="1" style="stop-color:#EAA315"/>
		</linearGradient>
		<path class="st2" d="M92.8,100.7l-9.7,0.5c-1,0-2,0.6-2.5,1.5l-5.3,8.2c-0.9,1.4-2.7,1.9-4.1,1.1l-8.7-4.4c-0.9-0.5-2-0.5-2.9,0
			l-8.7,4.4c-1.5,0.7-3.2,0.3-4.1-1.1l-5.3-8.2c-0.6-0.9-1.5-1.4-2.5-1.5l-9.7-0.5c-1.6-0.1-2.9-1.4-3-3l-0.5-9.7c0-1-0.6-2-1.5-2.5
			l-8.2-5.3c-1.4-0.9-1.9-2.7-1.1-4.1l4.4-8.7c0.5-0.9,0.5-2,0-2.9L15,55.7c-0.7-1.5-0.3-3.2,1.1-4.1l8.2-5.3
			c0.9-0.6,1.4-1.5,1.5-2.5l0.5-9.7c0.1-1.6,1.4-2.9,3-3l9.7-0.5c1,0,2-0.6,2.5-1.5l5.3-8.2c0.9-1.4,2.7-1.9,4.1-1.1l8.7,4.4
			c0.9,0.5,2,0.5,2.9,0l8.7-4.4c1.5-0.7,3.2-0.3,4.1,1.1l5.3,8.2c0.6,0.9,1.5,1.4,2.5,1.5l9.7,0.5c1.6,0.1,2.9,1.4,3,3l0.5,9.7
			c0,1,0.6,2,1.5,2.5l8.2,5.3c1.4,0.9,1.9,2.7,1.1,4.1l-4.4,8.7c-0.5,0.9-0.5,2,0,2.9l4.4,8.7c0.7,1.5,0.3,3.2-1.1,4.1l-8.2,5.3
			c-0.9,0.6-1.4,1.5-1.5,2.5l-0.5,9.7C95.7,99.3,94.4,100.6,92.8,100.7z"/>
		
			<linearGradient id="SVGID_00000145036960006349586460000011650133382571659684_" gradientUnits="userSpaceOnUse" x1="1569.7521" y1="-3826.2258" x2="1569.7521" y2="-3888.1091" gradientTransform="matrix(-1 0 0 1 1630.77 3941.9399)">
			<stop  offset="0" style="stop-color:#FFFFFF"/>
			<stop  offset="2.000000e-02" style="stop-color:#FFD400"/>
			<stop  offset="1" style="stop-color:#EAA315"/>
		</linearGradient>
		<path style="fill-rule:evenodd;clip-rule:evenodd;fill:url(#SVGID_00000145036960006349586460000011650133382571659684_);" d="
			M89.5,97.1l-8.7,0.4c-0.9,0-1.8,0.5-2.3,1.3l-4.7,7.3c-0.8,1.2-2.4,1.7-3.7,1l-7.8-4c-0.8-0.4-1.8-0.4-2.6,0l-7.8,4
			c-1.3,0.7-2.9,0.2-3.7-1l-4.7-7.3c-0.5-0.8-1.3-1.3-2.3-1.3l-8.7-0.4c-1.5-0.1-2.6-1.2-2.7-2.7l-0.4-8.7c0-0.9-0.5-1.8-1.3-2.3
			l-7.3-4.7c-1.2-0.8-1.7-2.4-1-3.7l4-7.8c0.4-0.8,0.4-1.8,0-2.6l-4-7.8c-0.7-1.3-0.2-2.9,1-3.7l7.3-4.7c0.8-0.5,1.3-1.3,1.3-2.3
			l0.4-8.7c0.1-1.5,1.2-2.6,2.7-2.7l8.7-0.4c0.9,0,1.8-0.5,2.3-1.3l4.7-7.3c0.8-1.2,2.4-1.7,3.7-1l7.8,4c0.8,0.4,1.8,0.4,2.6,0
			l7.8-4c1.3-0.7,2.9-0.2,3.7,1l4.7,7.3c0.5,0.8,1.3,1.3,2.3,1.3l8.7,0.4c1.5,0.1,2.6,1.2,2.7,2.7l0.4,8.7c0,0.9,0.5,1.8,1.3,2.3
			l7.3,4.7c1.2,0.8,1.7,2.4,1,3.7l-4,7.8c-0.4,0.8-0.4,1.8,0,2.6l4,7.8c0.7,1.3,0.2,2.9-1,3.7L94,83.4c-0.8,0.5-1.3,1.3-1.3,2.3
			l-0.4,8.7C92.1,95.8,91,97,89.5,97.1z"/>
		<g>
			<path class="st4" d="M50.6,49.3c0-5.5,4.5-10,10.1-10s10,4.5,10,10s-4.5,10-10,10.1C55.1,59.3,50.6,54.9,50.6,49.3"/>
			<path class="st5" d="M60.6,63.4L60.6,63.4c13.1,0,23.7,10.6,23.7,23.7v7.6H36.9v-7.6C36.9,74,47.5,63.4,60.6,63.4z"/>
		</g>
		<path class="st6" d="M104.3,103.1c-28.2-8.8-58.5-8.8-86.7,0l-5-19.3c30-10.2,61.8-11.6,96.7,0L104.3,103.1L104.3,103.1z"/>
		<g>
			<g class="st7">
				<path class="st5" d="M35.7,88.4c-0.1,0.3-0.3,0.6-0.6,0.8c-0.3,0.2-0.7,0.4-1.1,0.5l-0.9,0.2l0.4,2.1l-1.4,0.3l-1.1-5.8l2.3-0.4
					c0.5-0.1,0.9-0.1,1.2,0c0.3,0.1,0.6,0.3,0.8,0.5c0.2,0.3,0.3,0.6,0.4,0.9C35.8,87.8,35.8,88.1,35.7,88.4z M34.3,88.3
					c0.1-0.2,0.1-0.3,0.1-0.6c0-0.2-0.1-0.4-0.3-0.5c-0.2-0.1-0.4-0.1-0.6-0.1l-0.8,0.1l0.3,1.5l0.8-0.1
					C34,88.5,34.2,88.4,34.3,88.3z"/>
			</g>
			<g class="st7">
				<path class="st5" d="M38.8,90.7c-0.5-0.2-0.9-0.5-1.2-0.9c-0.3-0.4-0.5-0.9-0.6-1.5c-0.1-0.6,0-1.1,0.2-1.6
					c0.2-0.5,0.5-0.9,0.9-1.2c0.4-0.3,0.9-0.5,1.4-0.6c0.5-0.1,1.1,0,1.5,0.2c0.5,0.2,0.9,0.5,1.2,0.9c0.3,0.4,0.5,0.9,0.6,1.5
					c0.1,0.6,0,1.1-0.2,1.6c-0.2,0.5-0.5,0.9-0.9,1.2c-0.4,0.3-0.9,0.5-1.4,0.6C39.8,91,39.3,90.9,38.8,90.7z M41.2,88.9
					c0.2-0.3,0.3-0.8,0.2-1.3c-0.1-0.5-0.3-0.9-0.6-1.2c-0.3-0.3-0.7-0.4-1.2-0.3c-0.5,0.1-0.8,0.3-1,0.6c-0.2,0.3-0.3,0.8-0.2,1.3
					c0.1,0.5,0.3,0.9,0.6,1.2c0.3,0.3,0.7,0.4,1.2,0.3C40.6,89.5,41,89.3,41.2,88.9z"/>
			</g>
			<g class="st7">
				<path class="st5" d="M48.2,86.8c-0.1,0.3-0.3,0.6-0.6,0.8c-0.3,0.2-0.7,0.3-1.2,0.4L45.5,88l0.2,2.1l-1.4,0.1l-0.6-5.9l2.3-0.2
					c0.5,0,0.9,0,1.2,0.1c0.3,0.1,0.6,0.3,0.8,0.6c0.2,0.3,0.3,0.6,0.3,1C48.4,86.2,48.4,86.5,48.2,86.8z M46.8,86.6
					c0.1-0.1,0.2-0.3,0.1-0.6s-0.1-0.4-0.3-0.5c-0.1-0.1-0.4-0.2-0.6-0.1l-0.8,0.1l0.1,1.5l0.8-0.1C46.5,86.8,46.7,86.7,46.8,86.6z"
					/>
			</g>
			<g class="st7">
				<path class="st5" d="M50.9,83.8l0.2,3.5c0,0.4,0.1,0.6,0.3,0.8c0.2,0.2,0.4,0.3,0.8,0.2c0.3,0,0.6-0.1,0.7-0.3
					c0.2-0.2,0.2-0.5,0.2-0.8l-0.2-3.5l1.4-0.1l0.2,3.5c0,0.5-0.1,1-0.3,1.4c-0.2,0.4-0.5,0.7-0.8,0.9c-0.4,0.2-0.8,0.3-1.2,0.4
					c-0.5,0-0.9,0-1.2-0.2c-0.4-0.2-0.7-0.4-0.9-0.8c-0.2-0.4-0.4-0.8-0.4-1.3l-0.2-3.5L50.9,83.8z"/>
			</g>
			<g class="st7">
				<path class="st5" d="M57.4,88.3l1.9,0l0,1.1L56,89.4l-0.1-5.9l1.4,0L57.4,88.3z"/>
			</g>
			<g class="st7">
				<path class="st5" d="M64,88.3l-2.2,0l-0.4,1l-1.5,0l2.2-5.9l1.6,0l2,6l-1.5,0L64,88.3z M63.7,87.2L63,85l-0.7,2.2L63.7,87.2z"/>
			</g>
			<g class="st7">
				<path class="st5" d="M69.9,89.6l-1.1-2.3l-0.3,0l-0.1,2.2l-1.4-0.1l0.3-5.9l2.4,0.1c0.5,0,0.8,0.1,1.2,0.3
					c0.3,0.2,0.5,0.4,0.7,0.7c0.1,0.3,0.2,0.6,0.2,1c0,0.4-0.1,0.7-0.4,1c-0.2,0.3-0.6,0.5-1,0.6l1.2,2.4L69.9,89.6z M68.5,86.3
					l0.9,0c0.3,0,0.5,0,0.6-0.2c0.1-0.1,0.2-0.3,0.2-0.5c0-0.2,0-0.4-0.2-0.5c-0.1-0.1-0.3-0.2-0.6-0.2l-0.9,0L68.5,86.3z"/>
			</g>
			<g class="st7">
				<path class="st5" d="M78.2,89.3l-2.2-0.2l-0.5,1l-1.5-0.2l2.7-5.7l1.6,0.2l1.4,6.1l-1.5-0.2L78.2,89.3z M78,88.2l-0.5-2.2
					L76.6,88L78,88.2z"/>
			</g>
			<g class="st7">
				<path class="st5" d="M85.6,88.3c-0.2,0.3-0.5,0.4-0.8,0.6C84.4,89,84,89,83.6,89l-0.9-0.1l-0.3,2.1L81,90.7l0.9-5.9l2.3,0.3
					c0.5,0.1,0.8,0.2,1.1,0.4c0.3,0.2,0.5,0.5,0.6,0.8c0.1,0.3,0.1,0.6,0.1,1C85.9,87.8,85.8,88.1,85.6,88.3z M84.3,87.7
					c0.1-0.1,0.2-0.3,0.3-0.5c0-0.2,0-0.4-0.1-0.6c-0.1-0.1-0.3-0.2-0.6-0.3l-0.8-0.1l-0.2,1.5l0.8,0.1
					C83.9,87.9,84.1,87.8,84.3,87.7z"/>
			</g>
			<g class="st7">
				<path class="st5" d="M91.1,89.4c-0.2,0.3-0.5,0.4-0.8,0.5c-0.3,0.1-0.8,0.1-1.2,0l-0.9-0.2l-0.4,2.1l-1.4-0.3l1.1-5.8l2.3,0.4
					c0.5,0.1,0.8,0.2,1.1,0.5c0.3,0.2,0.5,0.5,0.6,0.8c0.1,0.3,0.1,0.7,0.1,1C91.5,88.8,91.4,89.1,91.1,89.4z M89.8,88.7
					c0.2-0.1,0.3-0.3,0.3-0.5c0-0.2,0-0.4-0.1-0.6c-0.1-0.2-0.3-0.3-0.6-0.3l-0.8-0.1l-0.3,1.5l0.8,0.1
					C89.5,88.8,89.7,88.8,89.8,88.7z"/>
			</g>
		</g>
	</g>
</g>
</svg>
