<?xml version="1.0" encoding="utf-8"?>
<!-- Generator: Adobe Illustrator 27.7.0, SVG Export Plug-In . SVG Version: 6.00 Build 0)  -->
<svg version="1.1" id="Capa_2_00000142890397861065270560000013413612367101228449_"
	 xmlns="http://www.w3.org/2000/svg" xmlns:xlink="http://www.w3.org/1999/xlink" x="0px" y="0px" viewBox="0 0 92.6 99.9"
	 style="enable-background:new 0 0 92.6 99.9;" xml:space="preserve">
<style type="text/css">
	.st0{fill:url(#SVGID_1_);}
	.st1{fill:none;}
	.st2{fill-rule:evenodd;clip-rule:evenodd;fill:#EF521B;}
	.st3{clip-path:url(#SVGID_00000110433824756041781970000013693832994584586402_);}
	.st4{fill-rule:evenodd;clip-rule:evenodd;fill:#FFE600;}
	.st5{clip-path:url(#SVGID_00000026868214618246442650000001753905010076833469_);}
	.st6{fill-rule:evenodd;clip-rule:evenodd;fill:#D33F11;}
	.st7{fill:#FFFFFF;}
</style>
<g id="GRAFICA">
	<g>
		
			<linearGradient id="SVGID_1_" gradientUnits="userSpaceOnUse" x1="-938.905" y1="8.1125" x2="-938.905" y2="100.2975" gradientTransform="matrix(-1 0 0 -1 -893.44 102)">
			<stop  offset="2.000000e-02" style="stop-color:#FFD400"/>
			<stop  offset="1" style="stop-color:#EAA315"/>
		</linearGradient>
		<path class="st0" d="M43.7,2.3l-9.6,7.4c-0.5,0.4-1.2,0.6-1.9,0.6L20.2,10c-1.3,0-2.5,0.8-2.9,2.1l-3.4,11.6
			c-0.2,0.6-0.6,1.2-1.1,1.6l-10,6.8c-1.1,0.7-1.5,2.1-1.1,3.4l4.1,11.4c0.2,0.6,0.2,1.3,0,2L1.6,60.2c-0.5,1.2,0,2.6,1.1,3.4
			l10,6.8c0.6,0.4,1,0.9,1.1,1.6l3.4,11.6c0.4,1.3,1.5,2.1,2.9,2.1l12.1-0.4c0.7,0,1.3,0.2,1.9,0.6l9.6,7.4c1,0.8,2.5,0.8,3.5,0
			l9.6-7.4c0.5-0.4,1.2-0.6,1.9-0.6l12.1,0.4c1.3,0,2.5-0.8,2.9-2.1L77,71.9c0.2-0.6,0.6-1.2,1.2-1.6l10-6.8
			c1.1-0.7,1.5-2.1,1.1-3.4l-4.1-11.4c-0.2-0.6-0.2-1.3,0-2l4.1-11.4c0.4-1.2,0-2.6-1.1-3.4l-10-6.8c-0.6-0.4-1-0.9-1.2-1.6L73.6,12
			c-0.4-1.3-1.5-2.1-2.9-2.1l-12.1,0.4c-0.7,0-1.3-0.2-1.9-0.6l-9.6-7.4C46.2,1.5,44.7,1.5,43.7,2.3z"/>
		<g>
			<g>
				<circle class="st1" cx="45.5" cy="47.8" r="26.2"/>
				<circle class="st1" cx="45.5" cy="47.8" r="33.4"/>
			</g>
		</g>
		<path class="st2" d="M29.5,58.8c-2.2-3.1-3.5-6.9-3.5-11c0-10.7,8.8-19.3,19.5-19.3s19.5,8.6,19.5,19.3s-8.7,19.3-19.5,19.3
			C38.9,67.1,33,63.8,29.5,58.8"/>
		<circle class="st1" cx="45.5" cy="47.8" r="36.3"/>
		<g>
			<defs>
				<path id="SVGID_00000093872463026227242380000005304886646808727971_" d="M43.8,5.2l-9,6.9c-0.5,0.4-1.1,0.6-1.7,0.6l-11.3-0.4
					c-1.2,0-2.3,0.8-2.7,1.9l-3.2,10.9c-0.2,0.6-0.6,1.1-1.1,1.5l-9.4,6.4c-1,0.7-1.4,2-1,3.2l3.8,10.7c0.2,0.6,0.2,1.2,0,1.8
					L4.5,59.4c-0.4,1.2,0,2.5,1,3.2l9.4,6.4c0.5,0.3,0.9,0.9,1.1,1.5l3.2,10.9c0.3,1.2,1.4,2,2.7,1.9l11.3-0.3
					c0.6,0,1.2,0.2,1.7,0.6l9,6.9c1,0.8,2.3,0.8,3.3,0l9-6.9c0.5-0.4,1.1-0.6,1.7-0.6l11.3,0.3c1.2,0,2.3-0.8,2.7-1.9L75,70.4
					c0.2-0.6,0.6-1.1,1.1-1.5l9.4-6.4c1-0.7,1.4-2,1-3.2l-3.8-10.7c-0.2-0.6-0.2-1.2,0-1.8l3.8-10.7c0.4-1.2,0-2.5-1-3.2l-9.4-6.4
					c-0.5-0.4-0.9-0.9-1.1-1.5l-3.2-10.9c-0.3-1.2-1.4-2-2.7-1.9l-11.3,0.4c-0.6,0-1.2-0.2-1.7-0.6l-9-6.9
					C46.1,4.5,44.8,4.5,43.8,5.2z"/>
			</defs>
			<clipPath id="SVGID_00000029010985035535805870000012770028700241256585_">
				<use xlink:href="#SVGID_00000093872463026227242380000005304886646808727971_"  style="overflow:visible;"/>
			</clipPath>
			<g style="clip-path:url(#SVGID_00000029010985035535805870000012770028700241256585_);">
				<path class="st4" d="M93.6,54.1l-0.6,30l-34.8,21.3l-60.7-5.8l-0.4-51.8h20.6c0,15.3,12.4,27.7,27.7,27.7s27.7-12.4,27.7-27.7
					h10.7L93.6,54.1L93.6,54.1z"/>
			</g>
		</g>
		<g>
			<defs>
				<path id="SVGID_00000093891949500216084770000005726146104223769515_" d="M45.6,0c38.1,0,46.9,11.7,46.9,49.8s-9,50.1-47.1,50.1
					S0,85.9,0,47.8S7.5,0,45.6,0z M45.5,75.5c15.3,0,27.7-12.4,27.7-27.7S60.8,20.1,45.5,20.1S17.7,32.5,17.7,47.8
					S30.2,75.5,45.5,75.5z"/>
			</defs>
			<clipPath id="SVGID_00000170982251795775130100000003610807653794696335_">
				<use xlink:href="#SVGID_00000093891949500216084770000005726146104223769515_"  style="overflow:visible;"/>
			</clipPath>
			<g style="clip-path:url(#SVGID_00000170982251795775130100000003610807653794696335_);">
				<g>
					<path class="st2" d="M59.7,96.9l5.5-9.3l9.8,2.5c1.1,0.3,2.1-0.8,1.6-1.9L65.2,61.7l-19.5,8.4l11.5,26.7
						C57.7,97.8,59.1,97.9,59.7,96.9L59.7,96.9z"/>
					<path class="st2" d="M31.2,96.9l-5.5-9.3l-9.8,2.5c-1.1,0.3-2.1-0.8-1.6-1.9l11.5-26.6l19.5,8.4L33.7,96.8
						C33.2,97.8,31.8,97.9,31.2,96.9L31.2,96.9z"/>
					<g>
						<path class="st6" d="M69.3,71.2c-5,5.1-11.6,8.6-19,9.7l-4.7-10.8l19.5-8.5L69.3,71.2L69.3,71.2z"/>
						<path class="st6" d="M21.6,71.2l4.1-9.5l19.5,8.5l-4.7,10.8C33.2,79.8,26.6,76.3,21.6,71.2L21.6,71.2z"/>
					</g>
				</g>
			</g>
		</g>
		<path class="st7" d="M34.1,38.4c0.2,0,0.3,0,0.5,0c1.1,0,2.2,0,3.2,0h0.3v-1.2h14.6v1.2h0.3c1.1,0,2.2,0,3.2,0
			c0.9,0,1.3,0.4,1.3,1.3c0,0.9,0,1.8,0,2.7c0,2.8-1.9,5.1-4.7,5.5c-0.2,0-0.2,0.1-0.2,0.3c0,2.1-0.8,3.9-2.4,5.3
			c-0.9,0.8-1.9,1.4-3.1,1.7c-0.1,0-0.1,0-0.2,0.1c0,0.1,0,0.1,0,0.2l0.7,1.7c0,0.2,0.1,0.2,0.3,0.2c0.8,0,1.7,0,2.5,0
			c0.6,0,1,0.3,1.2,0.9c0.3,0.8,0.6,1.7,0.9,2.5c0,0.1,0,0.2,0.1,0.3H38.2c0-0.1,0.1-0.2,0.1-0.3c0.3-0.8,0.6-1.7,0.9-2.6
			c0.2-0.5,0.6-0.8,1.1-0.8c0.8,0,1.7,0,2.5,0c0.2,0,0.3-0.1,0.3-0.2l0.7-1.5c0-0.1,0-0.1,0.1-0.2c-0.3-0.1-0.6-0.2-0.9-0.3
			c-2.8-1.1-4.7-3.6-4.8-6.7c0-0.3-0.1-0.3-0.3-0.4c-2.4-0.4-4.2-2.3-4.5-4.8c0-0.1,0-0.1,0-0.2v-3.7C33.4,38.8,33.6,38.5,34.1,38.4
			z M52.8,45.5c0.3-0.1,0.6-0.2,0.8-0.4c1-0.6,1.6-1.5,1.6-2.8c0-0.5,0-1.1,0-1.6h-2.4V45.5z M43.2,49l2.3-1.2l2.3,1.2l-0.4-2.5
			l1.8-1.8l-2.5-0.4L45.4,42l-1.1,2.3l-2.5,0.4l1.8,1.8L43.2,49L43.2,49z M35.7,42.2c0,0.4,0,0.9,0.2,1.3c0.3,1,1,1.6,2,2
			c0.1,0,0.2,0,0.3,0.1v-4.7h-2.4C35.7,41.2,35.7,41.7,35.7,42.2L35.7,42.2z"/>
	</g>
</g>
<g>
	<path class="st7" d="M19.5,38.8L18.9,41l0.9,0.6l-0.5,1.8l-5.6-3.8l0.5-2l6.7-0.7l-0.5,1.8L19.5,38.8z M18.1,38.9l-2.2,0.2l1.8,1.2
		L18.1,38.9z"/>
	<path class="st7" d="M20.6,25.4l4.5,4.7l-1.2,1.8l-3.7-1.4l2.8,2.8l-1.2,1.8l-6.2-2.1l1-1.6l4.1,1.7l-3.1-3.2l1-1.6l4.2,1.5
		L19.6,27L20.6,25.4z"/>
	<path class="st7" d="M29.1,25l-1.7,1.4l0.4,1l-1.4,1.2l-2.3-6.4l1.6-1.3l5.8,3.4L30,25.6L29.1,25z M27.9,24.2l-1.8-1.1l0.8,2
		L27.9,24.2z"/>
	<path class="st7" d="M35,22.7l-2.1-1.6l-0.2,0.1l1,2.1l-1.6,0.8l-2.7-5.7l2.5-1.2c0.5-0.2,0.9-0.3,1.3-0.3s0.7,0.1,1,0.3
		s0.5,0.5,0.7,0.8c0.2,0.4,0.2,0.8,0.2,1.2c-0.1,0.4-0.3,0.8-0.6,1.1l2.4,1.6L35,22.7z M32.2,20.2l0.8-0.4c0.2-0.1,0.4-0.2,0.4-0.4
		s0-0.3,0-0.5c-0.1-0.2-0.2-0.3-0.4-0.4c-0.2-0.1-0.3,0-0.6,0.1L31.6,19L32.2,20.2z"/>
	<path class="st7" d="M40.6,14.9c0.5,0.2,1,0.5,1.4,0.9c0.4,0.4,0.6,0.9,0.7,1.5c0.1,0.6,0.1,1.2-0.1,1.7s-0.5,1-0.9,1.3
		c-0.4,0.4-1,0.6-1.6,0.7l-2.5,0.5l-1.3-6.2l2.5-0.5C39.4,14.8,40,14.8,40.6,14.9z M40.7,19c0.2-0.3,0.3-0.8,0.2-1.3
		c-0.1-0.5-0.3-0.9-0.7-1.1c-0.3-0.2-0.8-0.3-1.3-0.2l-0.6,0.1l0.6,3.2l0.6-0.1C40.1,19.5,40.5,19.3,40.7,19z"/>
	<path class="st7" d="M56.2,15.7l-2.7,5.9l-2.1-0.4l-0.1-4l-1.6,3.7l-2.1-0.4l-0.3-6.5l1.9,0.4l-0.1,4.4l1.8-4.1l1.9,0.4l0.1,4.4
		l1.5-4.1L56.2,15.7z"/>
	<path class="st7" d="M59.9,17.6l-2.7,5.8l-1.6-0.7l2.7-5.8L59.9,17.6z"/>
	<path class="st7" d="M63.2,27.2l-1.4-1l0.2-4.2l-2.1,2.9l-1.4-1l3.7-5.1l1.4,1l-0.2,4.3l2.1-2.9l1.4,1L63.2,27.2z"/>
	<path class="st7" d="M67.7,32.5l-1.1-1.4l1.3-4.1l-2.8,2.2L64,27.9l4.9-4l1.1,1.4l-1.3,4.1l2.8-2.3l1.1,1.4L67.7,32.5z"/>
	<path class="st7" d="M73.4,33l-0.9,0.5l0.9,1.8l-1.2,0.6L71.3,34l-1,0.5l1,2.1L70,37.2l-1.8-3.7l5.7-2.8l1.8,3.7L74.4,35L73.4,33z"
		/>
	<path class="st7" d="M71.1,41.2l2-1.8l0-0.2l-2.3,0.6l-0.4-1.7l6.2-1.5l0.7,2.7c0.1,0.5,0.1,0.9,0,1.3c-0.1,0.4-0.3,0.7-0.5,1
		c-0.3,0.2-0.6,0.4-0.9,0.5c-0.4,0.1-0.8,0.1-1.2-0.1s-0.7-0.4-0.9-0.8l-2.1,2L71.1,41.2z M74.2,39l0.2,0.8c0.1,0.2,0.2,0.4,0.3,0.5
		c0.1,0.1,0.3,0.1,0.5,0.1c0.2,0,0.3-0.1,0.4-0.3c0.1-0.1,0.1-0.3,0-0.6l-0.2-0.8L74.2,39z"/>
</g>
</svg>
