<?xml version="1.0" encoding="UTF-8"?>
<svg id="Capa_2" data-name="Capa 2" xmlns="http://www.w3.org/2000/svg" xmlns:xlink="http://www.w3.org/1999/xlink" viewBox="0 0 137.9 137.9">
  <defs>
    <style>
      .cls-1 {
        fill: #ef521b;
      }

      .cls-1, .cls-2, .cls-3, .cls-4 {
        fill-rule: evenodd;
      }

      .cls-2 {
        fill: #d33f11;
      }

      .cls-5 {
        clip-rule: evenodd;
      }

      .cls-5, .cls-6, .cls-7, .cls-8 {
        fill: none;
      }

      .cls-7 {
        clip-path: url(#clippath);
      }

      .cls-3 {
        filter: url(#drop-shadow-1);
      }

      .cls-3, .cls-9 {
        fill: #fff;
      }

      .cls-8 {
        clip-path: url(#clippath-1);
      }

      .cls-9 {
        font-family: Poppins-ExtraBold, Poppins;
        font-size: 9px;
        font-weight: 700;
      }

      .cls-4 {
        fill: #f1b52a;
      }

      .cls-10 {
        fill: url(#Degradado_sin_nombre_50);
      }
    </style>
    <linearGradient id="Degradado_sin_nombre_50" data-name="Degradado sin nombre 50" x1="68.95" y1="115.04" x2="68.95" y2="22.85" gradientUnits="userSpaceOnUse">
      <stop offset=".02" stop-color="#ffd400"/>
      <stop offset="1" stop-color="#eaa315"/>
    </linearGradient>
    <clipPath id="clippath">
      <path class="cls-6" d="m70.6,26.38l8.96,6.94c.5.38,1.11.58,1.74.56l11.33-.35c1.23-.04,2.33.76,2.68,1.94l3.17,10.88c.18.6.55,1.12,1.07,1.48l9.37,6.38c1.02.69,1.44,1.99,1.02,3.15l-3.83,10.67c-.21.59-.21,1.24,0,1.83l3.83,10.67c.42,1.16,0,2.45-1.02,3.15l-9.37,6.38c-.52.35-.9.88-1.07,1.48l-3.17,10.88c-.34,1.18-1.44,1.98-2.68,1.94l-11.33-.35c-.63-.02-1.24.18-1.74.56l-8.96,6.94c-.97.75-2.33.75-3.31,0l-8.96-6.94c-.5-.38-1.11-.58-1.74-.56l-11.33.35c-1.23.04-2.33-.76-2.68-1.94l-3.17-10.88c-.18-.6-.55-1.12-1.07-1.48l-9.37-6.38c-1.02-.69-1.44-1.99-1.02-3.15l3.83-10.67c.21-.59.21-1.24,0-1.83l-3.83-10.67c-.42-1.16,0-2.45,1.02-3.15l9.37-6.38c.52-.35.9-.88,1.07-1.48l3.17-10.88c.34-1.18,1.44-1.98,2.68-1.94l11.33.35c.63.02,1.24-.18,1.74-.56l8.96-6.94c.97-.75,2.33-.75,3.31,0Z"/>
    </clipPath>
    <clipPath id="clippath-1">
      <path class="cls-5" d="m68.95,0C30.87,0,0,30.87,0,68.95s30.87,68.95,68.95,68.95,68.95-30.87,68.95-68.95S107.03,0,68.95,0Zm0,96.66c-15.31,0-27.72-12.41-27.72-27.72s12.41-27.72,27.72-27.72,27.72,12.41,27.72,27.72-12.41,27.72-27.72,27.72Z"/>
    </clipPath>
    <filter id="drop-shadow-1" filterUnits="userSpaceOnUse">
      <feOffset dx="0" dy="0"/>
      <feGaussianBlur result="blur" stdDeviation="2"/>
      <feFlood flood-color="#fff" flood-opacity=".75"/>
      <feComposite in2="blur" operator="in"/>
      <feComposite in="SourceGraphic"/>
    </filter>
  </defs>
  <g id="GRAFICA">
    <g>
      <path class="cls-10" d="m70.72,23.46l9.58,7.42c.53.41,1.19.62,1.86.6l12.11-.37c1.32-.04,2.49.81,2.86,2.08l3.39,11.63c.19.64.59,1.2,1.15,1.58l10.02,6.81c1.09.74,1.54,2.12,1.09,3.36l-4.1,11.4c-.23.63-.23,1.32,0,1.95l4.1,11.4c.45,1.24,0,2.62-1.09,3.36l-10.02,6.81c-.55.38-.96.94-1.15,1.58l-3.39,11.63c-.37,1.26-1.54,2.12-2.86,2.08l-12.11-.37c-.67-.02-1.33.19-1.86.6l-9.58,7.42c-1.04.81-2.49.81-3.53,0l-9.58-7.42c-.53-.41-1.19-.62-1.86-.6l-12.11.37c-1.32.04-2.49-.81-2.86-2.08l-3.39-11.63c-.19-.64-.59-1.2-1.15-1.58l-10.02-6.81c-1.09-.74-1.54-2.12-1.09-3.36l4.1-11.4c.23-.63.23-1.32,0-1.95l-4.1-11.4c-.45-1.24,0-2.62,1.09-3.36l10.02-6.81c.55-.38.96-.94,1.15-1.58l3.39-11.63c.37-1.26,1.54-2.12,2.86-2.08l12.11.37c.67.02,1.33-.19,1.86-.6l9.58-7.42c1.04-.81,2.49-.81,3.53,0Z"/>
      <g>
        <g>
          <text class="cls-9" transform="translate(42.8 65.57) rotate(-75.57)"><tspan x="0" y="0">A</tspan></text>
          <text class="cls-9" transform="translate(44.3 58.87) rotate(-57.51)"><tspan x="0" y="0">W</tspan></text>
          <text class="cls-9" transform="translate(49.71 50.8) rotate(-39.53)"><tspan x="0" y="0">A</tspan></text>
          <text class="cls-9" transform="translate(55.08 46.46) rotate(-25.38)"><tspan x="0" y="0">R</tspan></text>
          <text class="cls-9" transform="translate(60.53 43.84) rotate(-11.39)"><tspan x="0" y="0">D</tspan></text>
          <text class="cls-9" transform="translate(67.26 42.71) rotate(-1.81)"><tspan x="0" y="0"> </tspan></text>
          <text class="cls-9" transform="translate(69.15 42.23) rotate(10.85)"><tspan x="0" y="0">W</tspan></text>
          <text class="cls-9" transform="translate(78.66 44.49) rotate(24.81)"><tspan x="0" y="0">I</tspan></text>
          <text class="cls-9" transform="translate(81.42 45.57) rotate(35.76)"><tspan x="0" y="0">N</tspan></text>
          <text class="cls-9" transform="translate(87.08 49.66) rotate(50.89)"><tspan x="0" y="0">N</tspan></text>
          <text class="cls-9" transform="translate(91.41 55.19) rotate(64.1)"><tspan x="0" y="0">E</tspan></text>
          <text class="cls-9" transform="translate(93.66 59.74) rotate(76.37)"><tspan x="0" y="0">R</tspan></text>
          <circle class="cls-6" cx="68.95" cy="68.95" r="26.24"/>
          <circle class="cls-6" cx="68.95" cy="68.95" r="33.43"/>
        </g>
        <g>
          <circle class="cls-6" cx="68.95" cy="68.95" r="26.24"/>
          <circle class="cls-6" cx="68.95" cy="68.95" r="33.43"/>
        </g>
      </g>
      <path class="cls-1" d="m84.93,79.94c2.19-3.13,3.48-6.92,3.48-10.99,0-10.68-8.76-19.33-19.46-19.33s-19.46,8.65-19.46,19.33,8.71,19.33,19.46,19.33c6.6,0,12.46-3.31,15.98-8.34"/>
      <circle class="cls-6" cx="68.95" cy="68.95" r="36.33" transform="translate(-4.71 132.84) rotate(-85.93)"/>
      <g class="cls-7">
        <path class="cls-4" d="m20.83,75.25l.62,30.03,34.77,21.3,60.65-5.8.41-51.84h-20.63c0,15.31-12.41,27.72-27.72,27.72s-27.72-12.41-27.72-27.72h-10.69s-9.7,6.3-9.7,6.3Z"/>
      </g>
      <g class="cls-8">
        <g>
          <path class="cls-1" d="m54.7,118.09l-5.54-9.26-9.83,2.46c-1.12.28-2.08-.85-1.62-1.91l11.51-26.57,19.51,8.45-11.55,26.67c-.45,1.04-1.89,1.14-2.47.16Z"/>
          <path class="cls-1" d="m83.19,118.09l5.54-9.26,9.83,2.46c1.12.28,2.08-.85,1.62-1.91l-11.51-26.57-19.51,8.45,11.55,26.67c.45,1.04,1.89,1.14,2.47.16Z"/>
          <g>
            <path class="cls-2" d="m45.09,92.36c4.99,5.09,11.59,8.58,18.98,9.67l4.66-10.77-19.51-8.45-4.14,9.55Z"/>
            <path class="cls-2" d="m92.81,92.36l-4.14-9.55-19.51,8.45,4.66,10.77c7.39-1.08,13.99-4.58,18.98-9.67Z"/>
          </g>
        </g>
      </g>
      <path class="cls-3" d="m60.42,64.53l4.77-.69,2.13-4.33c.65-1.29,2.55-1.29,3.2,0l2.13,4.33,4.77.69c1.44.18,2.04,1.98.97,2.99l-3.48,3.31.83,4.74c.23,1.43-1.3,2.53-2.55,1.84l-4.26-2.21-4.31,2.21c-1.25.69-2.78-.41-2.55-1.84l.83-4.74-3.48-3.31c-1.02-1.01-.46-2.81.97-2.99Z"/>
    </g>
  </g>
</svg>