<svg xmlns="http://www.w3.org/2000/svg" viewBox="0 0 26.49 26.38"><defs><style>.cls-1{fill:#0d1d7c;fill-rule:evenodd;}</style></defs><title>SitioWeb</title><g id="Capa_2" data-name="Capa 2"><g id="GRAFICA"><path class="cls-1" d="M9.71,9.41h7.05a28.14,28.14,0,0,1,0,7.56h-7A29.89,29.89,0,0,1,9.71,9.41Z"/><path class="cls-1" d="M.54,9.41H7.18a31.86,31.86,0,0,0,0,7.56H.54A13.5,13.5,0,0,1,.54,9.41Z"/><path class="cls-1" d="M19.32,9.41h6.61A13.32,13.32,0,0,1,26,17H19.34A33,33,0,0,0,19.32,9.41Z"/><path class="cls-1" d="M16.39,6.88H10.1c.19-.85.35-1.69.57-2.48.39-1.39.8-2.73,1.2-4.1a.35.35,0,0,1,.39-.3c.7,0,1.39,0,2.07,0a.29.29,0,0,1,.25.17,47.49,47.49,0,0,1,1.81,6.69"/><path class="cls-1" d="M10.1,19.54h6.33c-.34,1.36-.66,2.7-1,4-.22.87-.53,1.72-.79,2.57a.29.29,0,0,1-.33.25H12.15c-.07,0-.2-.09-.22-.15A51.27,51.27,0,0,1,10.1,19.54Z"/><path class="cls-1" d="M24.89,6.84l-.3,0c-1.79,0-3.58,0-5.37,0-.2,0-.3,0-.34-.28A48.17,48.17,0,0,0,17.44.86c0-.06,0-.11-.06-.23A13.47,13.47,0,0,1,24.89,6.84Z"/><path class="cls-1" d="M24.89,19.54a13.5,13.5,0,0,1-7.51,6.25c.13-.5.28-.93.4-1.37.38-1.56.74-3.12,1.1-4.69,0-.16.1-.23.27-.23,1.86,0,3.71,0,5.57,0l.17,0"/><path class="cls-1" d="M1.6,6.84A13.39,13.39,0,0,1,9.11.63c-.15.49-.28.93-.4,1.36C8.33,3.54,8,5.09,7.59,6.64c0,.17-.07.24-.25.24-1.86,0-3.71,0-5.57,0l-.17,0"/><path class="cls-1" d="M9.11,25.79A13.45,13.45,0,0,1,1.6,19.52l.32,0c1.77,0,3.56,0,5.33,0,.23,0,.32.06.36.3a45.49,45.49,0,0,0,1.45,5.74c0,.06,0,.11,0,.25"/></g></g></svg>