<svg xmlns="http://www.w3.org/2000/svg" xmlns:xlink="http://www.w3.org/1999/xlink" viewBox="0 0 143 143"><defs><style>.cls-1{fill:#1ab56c;}.cls-2{fill:none;stroke-miterlimit:10;stroke-width:3px;stroke:url(#Degradado_sin_nombre_79);}.cls-3{fill:#fff;}</style><linearGradient id="Degradado_sin_nombre_79" x1="71.5" y1="143" x2="71.5" gradientUnits="userSpaceOnUse"><stop offset="0" stop-color="#1f7afc" stop-opacity="0"/><stop offset="0.12" stop-color="#1f7afc" stop-opacity="0.04"/><stop offset="0.32" stop-color="#1f7afc" stop-opacity="0.16"/><stop offset="0.59" stop-color="#1f7afc" stop-opacity="0.35"/><stop offset="0.9" stop-color="#1f7afc" stop-opacity="0.62"/><stop offset="1" stop-color="#1f7afc" stop-opacity="0.7"/></linearGradient></defs><title>soprts</title><g id="Capa_2" data-name="Capa 2"><g id="GRAFICA"><circle class="cls-1" cx="71.5" cy="71.5" r="55"/><circle class="cls-2" cx="71.5" cy="71.5" r="70"/><path class="cls-3" d="M97,47.51a5.16,5.16,0,0,0-1.11-.11H88V44.66H55V47.4h-7.9c-2,0-3,1-3,3v6.09A12.36,12.36,0,0,0,54.61,68.92c.41.07.47.25.48.6a16.32,16.32,0,0,0,5.39,12,15.82,15.82,0,0,0,6.92,3.74l.49.14a3.06,3.06,0,0,1-.07.37c-.55,1.66-1.12,3.31-1.65,5-.11.35-.28.41-.61.41-1.85,0-3.7,0-5.56,0a2.65,2.65,0,0,0-2.75,2l-2,5.59-.19.6H87.89c-.07-.21-.12-.41-.19-.6l-2-5.74a2.65,2.65,0,0,0-2.56-1.84c-1.88,0-3.77,0-5.66,0a.61.61,0,0,1-.7-.52c-.5-1.57-1-3.14-1.56-4.71,0-.15-.08-.3-.14-.48.7-.22,1.38-.4,2-.65A16.4,16.4,0,0,0,87.9,69.73c0-.58.18-.75.75-.85A12.36,12.36,0,0,0,98.77,58.21a3.06,3.06,0,0,1,.1-.41V49.57A2.59,2.59,0,0,0,97,47.51ZM55,63.59a18.35,18.35,0,0,1-1.88-.9,7,7,0,0,1-3.56-6.17c0-1.19,0-2.38,0-3.61H55Zm21.58,7.88L71.5,68.78l-5.12,2.69,1-5.7-4.15-4,5.73-.83,2.56-5.19,2.56,5.19,5.73.83-4.15,4ZM93.39,56.05A11.92,11.92,0,0,1,93,59a6.66,6.66,0,0,1-4.4,4.39,6,6,0,0,1-.6.14V52.89H93.4C93.4,54,93.46,55,93.39,56.05Z"/></g></g></svg>