<?xml version="1.0" encoding="UTF-8"?>
<svg id="Layer_1" data-name="Layer 1" xmlns="http://www.w3.org/2000/svg" viewBox="0 0 50 50">
  <defs>
    <style>
      .cls-1 {
        fill: #fff;
      }

      .cls-2 {
        fill: none;
        stroke: #fff;
        stroke-miterlimit: 10;
        stroke-width: 2px;
      }
    </style>
  </defs>
  <path class="cls-2" d="m25,48.8h0c-13,0-23.5-10.5-23.5-23.5h0C1.5,12.3,12,1.8,25,1.8h0c13,0,23.5,10.5,23.5,23.5h0c0,13-10.6,23.5-23.5,23.5Z"/>
  <path class="cls-1" d="m10.23,26.02c.6-.86,1.62-.96,2.48-1.31,2.61-1.07,5.25-2.06,7.88-3.09,2.78-1.09,5.56-2.17,8.34-3.27,1.57-.63,3.11-1.32,4.69-1.92.65-.25,1.36-.39,2.05-.51.42-.07.69.21.63.64-.12.84-.28,1.67-.44,2.49-.32,1.63-.65,3.27-.98,4.9-.37,1.83-.73,3.66-1.09,5.49-.29,1.44-.56,2.89-.85,4.33-.23,1.18-.47,2.36-.72,3.54-.25,1.2-1.66,1.37-2.46.76-2.95-2.27-5.92-4.51-8.88-6.76-.12-.09-.22-.21-.38-.36.71-.66,1.39-1.31,2.08-1.94.41-.37.85-.71,1.26-1.08,1.22-1.11,2.44-2.24,3.66-3.35,1.37-1.24,2.74-2.49,4.13-3.71.37-.33.79-.6.91-1.11-.68-.27-1.13.21-1.58.48-1.75,1.06-3.45,2.19-5.17,3.29-2.85,1.82-5.69,3.64-8.55,5.44-.2.12-.53.16-.76.09-1.74-.57-3.47-1.16-5.19-1.8-.4-.15-.71-.53-1.07-.81,0-.14,0-.27,0-.41Z"/>
</svg>