<?xml version="1.0" encoding="UTF-8"?>
<svg xmlns="http://www.w3.org/2000/svg" xmlns:xlink="http://www.w3.org/1999/xlink" viewBox="0 0 128 128">
  <defs>
    <style>
      .cls-1 {
        fill: #0d1d7c;
      }

      .cls-2, .cls-3 {
        fill: none;
      }

      .cls-4 {
        fill: url(#Degradado_sin_nombre_181);
      }

      .cls-3 {
        clip-path: url(#clippath);
      }
    </style>
    <clipPath id="clippath">
      <rect class="cls-2" x="-823.39" y="308.19" width="1920" height="350.7"/>
    </clipPath>
    <radialGradient id="Degradado_sin_nombre_181" data-name="Degradado sin nombre 181" cx="-1304.33" cy="546.97" fx="-1304.33" fy="546.97" r="501.83" gradientTransform="translate(2099.94 -926.61) scale(1.51)" gradientUnits="userSpaceOnUse">
      <stop offset="0" stop-color="#1f7af7"/>
      <stop offset=".02" stop-color="#1f7af7" stop-opacity=".97"/>
      <stop offset=".3" stop-color="#1f7af7" stop-opacity=".63"/>
      <stop offset=".55" stop-color="#1f7af7" stop-opacity=".36"/>
      <stop offset=".75" stop-color="#1f7af7" stop-opacity=".17"/>
      <stop offset=".91" stop-color="#1f7af7" stop-opacity=".05"/>
      <stop offset="1" stop-color="#1f7af7" stop-opacity="0"/>
    </radialGradient>
  </defs>
  <g id="Fondo_2" data-name="Fondo 2">
    <g class="cls-3">
      <circle class="cls-4" cx="136.61" cy="-103.3" r="755.37"/>
    </g>
  </g>
  <g id="GRAFICA">
    <g id="wEI54U">
      <g>
        <path class="cls-1" d="m100.22,68.64c-1.49-.23-4.36-.51-7.14-1.15-2.05-.47-3.41-.02-4.84,1.52-12.99,13.98-26.05,27.89-39.07,41.84-2.57,2.75-5.57,4.56-9.36,5.01-5.89.69-11.69-2.46-14.29-7.8-2.66-5.46-1.7-11.99,2.63-16.15,5.34-5.14,10.83-10.13,16.26-15.19,8.97-8.34,17.93-16.69,26.93-25,1.3-1.2,1.6-2.43,1.15-4.12-1.54-5.72-1.91-11.51-.26-17.27,2.48-8.65,8.39-14,16.73-16.77,6.21-2.06,12.45-1.96,18.59.44,3.44,1.35,4.15,4.75,1.55,7.38-3.93,3.96-7.89,7.9-11.84,11.85-1.77,1.77-1.78,3.17-.05,4.92,1.56,1.57,3.12,3.13,4.68,4.68,1.72,1.71,3.09,1.69,4.84-.04,3.92-3.91,7.84-7.84,11.76-11.75,2.87-2.87,6.25-2.27,7.65,1.55,3.3,9.02,1.96,17.6-3.21,25.51-4.97,7.62-12.53,10.44-22.7,10.55Z"/>
        <path class="cls-1" d="m61.23,50.16c-5.54,5.15-10.99,10.22-16.47,15.31-1.18-1.43-1.63-3-1.84-4.68-.05-.42-.16-.97-.44-1.22-3.24-2.8-6.48-5.6-9.8-8.3-.71-.58-1.7-.86-2.59-1.19-.3-.11-.82-.04-1.02.16-.17.17-.13.69,0,.99,1.07,2.76.72,4.52-1.35,6.56-2.2,2.16-4.39,4.33-6.61,6.47-2.51,2.43-5.44,2.4-7.95-.05-3.73-3.63-7.46-7.27-11.18-10.91-2.52-2.47-2.53-5.54-.02-8.01,2.26-2.22,4.54-4.41,6.8-6.63,1.09-1.07,2.34-1.7,3.9-1.68,1.27.02,1.95-.6,2.25-1.86.22-.91.56-1.87,1.12-2.61,7.43-9.78,17.07-16.42,28.92-19.56,6.73-1.78,13.37-1.05,19.27,2.96,1.85,1.26,3.35,3.09,4.82,4.83,1.14,1.35.94,3.28-.11,4.64-1.08,1.39-2.76,1.93-4.6,1.29-4.05-1.43-7.88-.78-11.57,1.13-3.42,1.77-5.22,5.4-4.36,8.82.25.98.75,1.95,1.33,2.78,1.78,2.57,3.62,5.09,5.51,7.58.35.47,1.01.85,1.59.98,1.63.34,3.08.96,4.42,2.23Z"/>
        <path class="cls-1" d="m74.29,95.64c5.48-5.85,10.93-11.68,16.44-17.57,2.65,2.4,5.22,4.76,7.83,7.09,3.45,3.08,6.91,6.14,10.38,9.18,3.72,3.25,3.95,7.89.5,11.38-2.66,2.7-5.32,5.39-8.05,8.02-3.21,3.08-7.82,2.96-10.8-.26-5.31-5.74-10.59-11.53-15.87-17.3-.14-.15-.25-.32-.42-.54Z"/>
      </g>
    </g>
  </g>
</svg>