<?xml version="1.0" encoding="utf-8"?>
<!-- Generator: Adobe Illustrator 24.1.2, SVG Export Plug-In . SVG Version: 6.00 Build 0)  -->
<svg version="1.1" id="Layer_1" xmlns="http://www.w3.org/2000/svg" xmlns:xlink="http://www.w3.org/1999/xlink" x="0px" y="0px"
	 viewBox="0 0 50 50" style="enable-background:new 0 0 50 50;" xml:space="preserve">
<style type="text/css">
	.st0{fill:#FFFFFF;}
	.st1{fill:none;stroke:#FFFFFF;stroke-width:2;stroke-miterlimit:10;}
</style>
<g>
	<g transform="scale(5.12,5.12)">
		<path class="st0" d="M7.8,3.4C7.6,3.5,7.4,3.5,7.2,3.5c0.2-0.1,0.4-0.4,0.5-0.6C7.4,3.1,7.2,3.1,6.9,3.2C6.7,3,6.4,2.8,6.1,2.8
			C5.5,2.8,5,3.3,5,4c0,0.1,0,0.2,0,0.3C4.1,4.2,3.2,3.7,2.7,3C2.6,3.2,2.5,3.4,2.5,3.6C2.5,4,2.7,4.4,3,4.6c-0.2,0-0.4-0.1-0.5-0.1
			c0,0,0,0,0,0c0,0.5,0.4,1,0.9,1.1c-0.1,0-0.2,0-0.3,0c-0.1,0-0.1,0-0.2,0C3,6,3.5,6.3,4,6.4C3.6,6.7,3.1,6.8,2.5,6.8
			c-0.1,0-0.2,0-0.3,0C2.8,7.1,3.4,7.3,4,7.3c2.1,0,3.2-1.7,3.2-3.2c0,0,0-0.1,0-0.1C7.5,3.8,7.7,3.6,7.8,3.4z"/>
	</g>
</g>
<path class="st1" d="M25.2,48.1L25.2,48.1c-13,0-23.5-10.5-23.5-23.5v0c0-13,10.5-23.5,23.5-23.5h0c13,0,23.5,10.5,23.5,23.5v0
	C48.7,37.5,38.2,48.1,25.2,48.1z"/>
</svg>
