<?xml version="1.0" encoding="UTF-8"?>
<svg xmlns="http://www.w3.org/2000/svg" xmlns:xlink="http://www.w3.org/1999/xlink" viewBox="0 0 128 128">
  <defs>
    <style>
      .cls-1 {
        fill: #0d1d7c;
      }

      .cls-2, .cls-3 {
        fill: none;
      }

      .cls-4 {
        fill: url(#Degradado_sin_nombre_181);
      }

      .cls-3 {
        clip-path: url(#clippath);
      }
    </style>
    <clipPath id="clippath">
      <rect class="cls-2" x="-195.39" y="308.19" width="1920" height="350.7"/>
    </clipPath>
    <radialGradient id="Degradado_sin_nombre_181" data-name="Degradado sin nombre 181" cx="-676.33" cy="546.97" fx="-676.33" fy="546.97" r="501.83" gradientTransform="translate(1782.65 -926.61) scale(1.51)" gradientUnits="userSpaceOnUse">
      <stop offset="0" stop-color="#1f7af7"/>
      <stop offset=".02" stop-color="#1f7af7" stop-opacity=".97"/>
      <stop offset=".3" stop-color="#1f7af7" stop-opacity=".63"/>
      <stop offset=".55" stop-color="#1f7af7" stop-opacity=".36"/>
      <stop offset=".75" stop-color="#1f7af7" stop-opacity=".17"/>
      <stop offset=".91" stop-color="#1f7af7" stop-opacity=".05"/>
      <stop offset="1" stop-color="#1f7af7" stop-opacity="0"/>
    </radialGradient>
  </defs>
  <g id="Fondo_2" data-name="Fondo 2">
    <g class="cls-3">
      <circle class="cls-4" cx="764.61" cy="-103.3" r="755.37"/>
    </g>
  </g>
  <g id="GRAFICA">
    <g id="M4c5AU">
      <path class="cls-1" d="m0,91.01C0,88.67,0,86.34,0,84.01c.08-.4.18-.8.24-1.2.38-2.72.63-5.46,1.15-8.15,2.14-11.12,5.88-21.73,10.38-32.1,2.29-5.29,5.1-10.36,6.53-16.02.51-2,1.96-3.33,3.92-4.07,5.06-1.91,10.08-3.92,15.18-5.7,1.51-.53,3.26-.65,4.88-.56,2.8.16,4.86,1.83,6.47,4.01.67.91,1.45,1.16,2.54,1.15,8.16-.04,16.33-.08,24.49.02,1.86.02,3.14-.5,4.4-1.89,3.2-3.56,6.81-4.31,11.3-2.61,4.71,1.78,9.39,3.62,14.12,5.34,2.33.85,3.84,2.36,4.65,4.68,1.03,2.98,1.92,6.02,3.22,8.88,5,11.05,9.41,22.3,12.15,34.14,1.87,8.07,3.14,16.2,1.9,24.5-.81,5.4-2.74,10.26-6.75,14.15-4.52,4.39-9.35,4.51-14.04.3-5.67-5.09-11.37-10.16-17.02-15.28-2.04-1.85-4.35-2.83-7.12-2.83-12.29.02-24.58.01-36.87,0-2.57,0-4.81.79-6.72,2.53-1.41,1.29-2.85,2.56-4.28,3.84-4.56,4.09-9.09,8.2-13.69,12.25-3.69,3.25-8.06,3.35-11.97.44-4.36-3.24-6.81-7.67-8.02-12.85C.58,95.04.34,93.01,0,91.01Zm37.33-37.68c-.71,0-1.28-.01-1.85,0-1.46.04-2.93-.04-4.36.16-3.16.45-5.11,3.67-4.17,6.72.71,2.3,2.64,3.74,5.15,3.79,1.73.04,3.45,0,5.23,0,0,1.75-.15,3.31.05,4.83.16,1.28.48,2.65,1.15,3.72,1.19,1.88,3.64,2.52,5.77,1.84,2.12-.68,3.6-2.56,3.68-4.85.07-1.81.01-3.63.01-5.53,1.88,0,3.58.02,5.28,0,1.62-.02,3.01-.61,4.07-1.86,1.43-1.69,1.7-3.62.84-5.61-.94-2.17-2.76-3.15-5.08-3.2-1.65-.04-3.31,0-4.86,0-.13-.16-.18-.2-.18-.23-.02-1.71-.02-3.41-.07-5.12-.07-2.32-1.47-4.26-3.53-4.97-3.57-1.23-6.96,1.22-7.11,5.21-.07,1.65-.01,3.31-.01,5.11Zm42.65.04c.01-2.88-2.42-5.33-5.31-5.35-2.89-.01-5.33,2.4-5.35,5.3-.02,2.88,2.41,5.33,5.31,5.35,2.88.02,5.34-2.42,5.35-5.31Zm21.29-.01c0-2.93-2.38-5.33-5.29-5.33-2.91,0-5.3,2.39-5.31,5.32,0,2.94,2.37,5.33,5.29,5.33,2.92,0,5.31-2.39,5.31-5.31Zm-21.27-10.65c.01,2.92,2.41,5.31,5.33,5.3,2.91-.01,5.3-2.42,5.28-5.34-.01-2.93-2.41-5.31-5.33-5.29-2.92.02-5.3,2.41-5.29,5.34Zm5.35,26.59c2.95-.01,5.29-2.39,5.26-5.33-.02-2.96-2.38-5.27-5.34-5.26-2.94.02-5.29,2.39-5.27,5.33.02,2.93,2.4,5.27,5.35,5.26Z"/>
    </g>
  </g>
</svg>